Egyptienne-2.ufo
<glyph name="zero" format="2">
  <advance width="317"/>
  <unicode hex="0030"/>
  <outline>
    <contour>
      <point x="162" y="-5" type="curve" smooth="yes"/>
      <point x="264" y="-5"/>
      <point x="302" y="51"/>
      <point x="302" y="250" type="curve" smooth="yes"/>
      <point x="302" y="473" type="line" smooth="yes"/>
      <point x="302" y="616"/>
      <point x="289" y="704"/>
      <point x="164" y="704" type="curve" smooth="yes"/>
      <point x="46" y="704"/>
      <point x="15" y="632"/>
      <point x="15" y="482" type="curve"/>
      <point x="14" y="345"/>
      <point x="15" y="381"/>
      <point x="15" y="244" type="curve" smooth="yes"/>
      <point x="15" y="36"/>
      <point x="55" y="-5"/>
    </contour>
    <contour>
      <point x="191" y="542" type="curve"/>
      <point x="191" y="584"/>
      <point x="191" y="261"/>
      <point x="191" y="168" type="curve" smooth="yes"/>
      <point x="191" y="75"/>
      <point x="188" y="42"/>
      <point x="160" y="42" type="curve" smooth="yes"/>
      <point x="120" y="42"/>
      <point x="125" y="73"/>
      <point x="125" y="168" type="curve" smooth="yes"/>
      <point x="125" y="543" type="line"/>
      <point x="125" y="626"/>
      <point x="126" y="653"/>
      <point x="161" y="653" type="curve"/>
      <point x="193" y="653"/>
      <point x="191" y="621"/>
    </contour>
    <contour>
      <point x="125" y="339" type="move"/>
      <point x="125" y="538" type="line"/>
    </contour>
    <contour>
      <point x="191" y="547" type="move"/>
      <point x="191" y="225" type="line"/>
    </contour>
  </outline>
</glyph>
<glyph name="one" format="2">
  <advance width="219"/>
  <unicode hex="0031"/>
  <outline>
    <contour>
      <point x="77" y="700" type="line"/>
      <point x="77" y="30" type="line"/>
      <point x="47" y="30" type="line"/>
      <point x="47" y="0" type="line"/>
      <point x="214" y="0" type="line"/>
      <point x="214" y="30" type="line"/>
      <point x="184" y="30" type="line"/>
      <point x="184" y="700" type="line"/>
    </contour>
    <contour>
      <point x="5" y="403" type="curve"/>
      <point x="5" y="325" type="line"/>
      <point x="63" y="374"/>
      <point x="77" y="416"/>
      <point x="77" y="416" type="curve"/>
      <point x="77" y="700" type="line"/>
      <point x="77" y="654"/>
      <point x="76" y="564"/>
      <point x="62" y="514" type="curve" smooth="yes"/>
      <point x="48" y="463"/>
      <point x="32" y="436"/>
    </contour>
  </outline>
  <guideline angle="0" x="0" y="700"/>
  <guideline angle="0" x="0" y="0"/>
</glyph>
<glyph name="two" format="2">
  <advance width="319"/>
  <unicode hex="0032"/>
  <guideline y="700"/>
  <guideline y="705"/>
  <guideline y="0"/>
  <guideline y="462"/>
  <guideline y="205"/>
  <guideline y="511"/>
  <outline>
    <contour>
      <point x="122" y="68" type="curve"/>
      <point x="219" y="68" type="line"/>
      <point x="219" y="205" type="line"/>
      <point x="292" y="205" type="line"/>
      <point x="292" y="0" type="line"/>
      <point x="15" y="0" type="line"/>
      <point x="15" y="68" type="line"/>
      <point x="102" y="214"/>
      <point x="195" y="369"/>
      <point x="196" y="444" type="curve" smooth="yes"/>
      <point x="196" y="475"/>
      <point x="196" y="571"/>
      <point x="196" y="632" type="curve"/>
      <point x="196" y="669"/>
      <point x="125" y="669"/>
      <point x="125" y="632" type="curve" smooth="yes"/>
      <point x="125" y="563"/>
      <point x="126" y="549"/>
      <point x="126" y="511" type="curve"/>
      <point x="41" y="511" type="line"/>
      <point x="41" y="530" type="line"/>
      <point x="41" y="590" type="line"/>
      <point x="41" y="622"/>
      <point x="48" y="705"/>
      <point x="164" y="705" type="curve" smooth="yes"/>
      <point x="287" y="705"/>
      <point x="303" y="632"/>
      <point x="303" y="525" type="curve"/>
      <point x="303" y="499"/>
      <point x="306" y="426"/>
      <point x="284" y="377" type="curve" smooth="yes"/>
      <point x="220" y="233"/>
      <point x="206" y="194"/>
    </contour>
  </outline>
</glyph>
<glyph name="three" format="2">
  <advance width="315"/>
  <unicode hex="0033"/>
  <outline>
    <contour>
      <point x="160" y="0" type="curve" smooth="yes"/>
      <point x="92" y="0"/>
      <point x="13" y="13"/>
      <point x="15" y="131" type="curve" smooth="yes"/>
      <point x="16" y="173"/>
      <point x="15" y="172"/>
      <point x="15" y="205" type="curve"/>
      <point x="124" y="205" type="line"/>
      <point x="124" y="60" type="line" smooth="yes"/>
      <point x="124" y="30"/>
      <point x="187" y="33"/>
      <point x="187" y="63" type="curve" smooth="yes"/>
      <point x="187" y="120"/>
      <point x="183" y="277"/>
      <point x="183" y="307" type="curve" smooth="yes"/>
      <point x="183" y="334"/>
      <point x="121" y="333"/>
      <point x="70" y="333" type="curve"/>
      <point x="70" y="403" type="line"/>
      <point x="111" y="402"/>
      <point x="188" y="393"/>
      <point x="188" y="440" type="curve" smooth="yes"/>
      <point x="188" y="511"/>
      <point x="188" y="573"/>
      <point x="188" y="642" type="curve" smooth="yes"/>
      <point x="188" y="671"/>
      <point x="122" y="671"/>
      <point x="122" y="642" type="curve" smooth="yes"/>
      <point x="122" y="577"/>
      <point x="124" y="570"/>
      <point x="125" y="511" type="curve"/>
      <point x="10" y="511" type="line"/>
      <point x="10" y="603" type="line"/>
      <point x="10" y="660"/>
      <point x="75" y="705"/>
      <point x="155" y="705" type="curve"/>
      <point x="280" y="705"/>
      <point x="299" y="621"/>
      <point x="299" y="525" type="curve"/>
      <point x="299" y="469" type="line"/>
      <point x="299" y="463"/>
      <point x="301" y="396"/>
      <point x="231" y="373" type="curve"/>
      <point x="301" y="350"/>
      <point x="295" y="297"/>
      <point x="295" y="274" type="curve" smooth="yes"/>
      <point x="295" y="252"/>
      <point x="295" y="184"/>
      <point x="295" y="107" type="curve"/>
      <point x="292" y="18"/>
      <point x="215" y="0"/>
    </contour>
  </outline>
  <guideline angle="0" x="0" y="700"/>
  <guideline angle="0" x="0" y="705"/>
  <guideline angle="0" x="0" y="664"/>
  <guideline angle="0" x="0" y="511"/>
  <guideline angle="0" x="0" y="205"/>
</glyph>
<glyph name="four" format="2">
  <advance width="315"/>
  <unicode hex="0034"/>
  <outline>
    <contour>
      <point x="280" y="30" type="line"/>
      <point x="310" y="30" type="line"/>
      <point x="310" y="0" type="line"/>
      <point x="143" y="0" type="line"/>
      <point x="143" y="30" type="line"/>
      <point x="173" y="30" type="line"/>
      <point x="173" y="167" type="line"/>
      <point x="5" y="168" type="line"/>
      <point x="5" y="240" type="line"/>
      <point x="42" y="325"/>
      <point x="79" y="412"/>
      <point x="99" y="501" type="curve" smooth="yes"/>
      <point x="117" y="583"/>
      <point x="125" y="624"/>
      <point x="132" y="700" type="curve"/>
      <point x="238" y="700" type="line"/>
      <point x="238" y="656"/>
      <point x="227" y="578"/>
      <point x="216" y="539" type="curve" smooth="yes"/>
      <point x="181" y="419"/>
      <point x="153" y="356"/>
      <point x="103" y="240" type="curve"/>
      <point x="173" y="240" type="line"/>
      <point x="173" y="310" type="line"/>
      <point x="227" y="385" type="line"/>
      <point x="280" y="385" type="line"/>
      <point x="280" y="240" type="line"/>
      <point x="310" y="240" type="line"/>
      <point x="310" y="167" type="line"/>
      <point x="280" y="167" type="line"/>
    </contour>
  </outline>
  <guideline angle="0" x="0" y="385"/>
  <guideline angle="0" x="0" y="700"/>
  <guideline angle="0" x="0" y="0"/>
</glyph>
<glyph name="five" format="2">
  <advance width="291"/>
  <unicode hex="0035"/>
  <guideline y="384"/>
  <guideline y="205"/>
  <outline>
    <contour>
      <point x="168" y="385" type="line" smooth="yes"/>
      <point x="168" y="401"/>
      <point x="151" y="417"/>
      <point x="132" y="417" type="curve" smooth="yes"/>
      <point x="106" y="417"/>
      <point x="104" y="412"/>
      <point x="99" y="384" type="curve"/>
      <point x="10" y="402" type="line"/>
      <point x="27" y="700" type="line"/>
      <point x="277" y="700" type="line"/>
      <point x="277" y="600" type="line"/>
      <point x="113" y="601" type="line"/>
      <point x="102" y="443" type="line"/>
      <point x="107" y="465"/>
      <point x="141" y="481"/>
      <point x="187" y="481" type="curve"/>
      <point x="244" y="481"/>
      <point x="275" y="438"/>
      <point x="275" y="384" type="curve" smooth="yes"/>
      <point x="275" y="266"/>
      <point x="275" y="236"/>
      <point x="275" y="118" type="curve" smooth="yes"/>
      <point x="275" y="22"/>
      <point x="210" y="-5"/>
      <point x="142" y="-5" type="curve" smooth="yes"/>
      <point x="77" y="-5"/>
      <point x="10" y="22"/>
      <point x="10" y="113" type="curve" smooth="yes"/>
      <point x="10" y="231"/>
      <point x="10" y="87"/>
      <point x="10" y="205" type="curve"/>
      <point x="117" y="205" type="line"/>
      <point x="117" y="86" type="line" smooth="yes"/>
      <point x="117" y="55"/>
      <point x="123" y="49"/>
      <point x="142" y="49" type="curve" smooth="yes"/>
      <point x="161" y="49"/>
      <point x="168" y="56"/>
      <point x="168" y="86" type="curve" smooth="yes"/>
    </contour>
  </outline>
</glyph>
<glyph name="six" format="2">
  <advance width="320"/>
  <unicode hex="0036"/>
  <outline>
    <contour>
      <point x="126" y="288" type="line"/>
      <point x="126" y="316"/>
      <point x="139" y="331"/>
      <point x="159" y="331" type="curve" smooth="yes"/>
      <point x="179" y="331"/>
      <point x="192" y="316"/>
      <point x="192" y="289" type="curve"/>
      <point x="192" y="90" type="line"/>
      <point x="192" y="90"/>
      <point x="196" y="41"/>
      <point x="159" y="41" type="curve" smooth="yes"/>
      <point x="122" y="41"/>
      <point x="126" y="79"/>
      <point x="126" y="89" type="curve"/>
      <point x="126" y="411" type="line"/>
      <point x="126" y="482"/>
      <point x="126" y="550"/>
      <point x="126" y="619" type="curve" smooth="yes"/>
      <point x="126" y="634"/>
      <point x="130" y="661"/>
      <point x="160" y="661" type="curve" smooth="yes"/>
      <point x="184" y="661"/>
      <point x="192" y="636"/>
      <point x="192" y="621" type="curve" smooth="yes"/>
      <point x="192" y="556"/>
      <point x="192" y="521"/>
      <point x="192" y="511" type="curve"/>
      <point x="296" y="511" type="line"/>
      <point x="296" y="603" type="line"/>
      <point x="296" y="660"/>
      <point x="239" y="705"/>
      <point x="159" y="705" type="curve"/>
      <point x="27" y="705"/>
      <point x="15" y="645"/>
      <point x="15" y="525" type="curve"/>
      <point x="15" y="453" type="line"/>
      <point x="15" y="143" type="line"/>
      <point x="18" y="66"/>
      <point x="33" y="-7"/>
      <point x="159" y="-7" type="curve" smooth="yes"/>
      <point x="294" y="-7"/>
      <point x="304" y="55"/>
      <point x="304" y="203" type="curve"/>
      <point x="304" y="273" type="line"/>
      <point x="304" y="315"/>
      <point x="306" y="355"/>
      <point x="274" y="375" type="curve" smooth="yes"/>
      <point x="222" y="408"/>
      <point x="145" y="387"/>
      <point x="126" y="361" type="curve"/>
    </contour>
  </outline>
  <guideline angle="0" x="0" y="0"/>
  <guideline angle="0" x="0" y="511"/>
  <guideline angle="0" x="0" y="511"/>
  <guideline angle="0" x="0" y="511"/>
</glyph>
<glyph name="seven" format="2">
  <advance width="284"/>
  <unicode hex="0037"/>
  <guideline y="700"/>
  <guideline y="511"/>
  <outline>
    <contour>
      <point x="162" y="632" type="line"/>
      <point x="88" y="632" type="line"/>
      <point x="88" y="511" type="line"/>
      <point x="15" y="511" type="line"/>
      <point x="15" y="700" type="line"/>
      <point x="279" y="700" type="line"/>
      <point x="279" y="632" type="line"/>
      <point x="252" y="465"/>
      <point x="232" y="372"/>
      <point x="221" y="295" type="curve" smooth="yes"/>
      <point x="211" y="222"/>
      <point x="191" y="41"/>
      <point x="191" y="0" type="curve"/>
      <point x="84" y="0" type="line"/>
      <point x="84" y="101"/>
      <point x="107" y="236"/>
      <point x="130" y="363" type="curve"/>
      <point x="155" y="505"/>
      <point x="195" y="632"/>
      <point x="198" y="632" type="curve"/>
    </contour>
  </outline>
</glyph>
<glyph name="eight" format="2">
  <advance width="329"/>
  <unicode hex="0038"/>
  <outline>
    <contour>
      <point x="165" y="-4" type="curve" smooth="yes"/>
      <point x="236" y="-4"/>
      <point x="314" y="22"/>
      <point x="314" y="142" type="curve" smooth="yes"/>
      <point x="314" y="272" type="line" smooth="yes"/>
      <point x="314" y="371"/>
      <point x="237" y="396"/>
      <point x="166" y="396" type="curve" smooth="yes"/>
      <point x="99" y="396"/>
      <point x="15" y="369"/>
      <point x="15" y="267" type="curve"/>
      <point x="15" y="189"/>
      <point x="17" y="224"/>
      <point x="17" y="146" type="curve" smooth="yes"/>
      <point x="17" y="23"/>
      <point x="98" y="-4"/>
    </contour>
    <contour>
      <point x="198" y="306" type="curve"/>
      <point x="198" y="330"/>
      <point x="198" y="176"/>
      <point x="198" y="94" type="curve" smooth="yes"/>
      <point x="198" y="51"/>
      <point x="191" y="33"/>
      <point x="164" y="33" type="curve" smooth="yes"/>
      <point x="136" y="33"/>
      <point x="130" y="50"/>
      <point x="130" y="94" type="curve" smooth="yes"/>
      <point x="130" y="307" type="line"/>
      <point x="130" y="344"/>
      <point x="148" y="359"/>
      <point x="165" y="359" type="curve"/>
      <point x="183" y="359"/>
      <point x="198" y="341"/>
    </contour>
    <contour>
      <point x="165" y="372" type="curve" smooth="yes"/>
      <point x="223" y="372"/>
      <point x="287" y="397"/>
      <point x="287" y="475" type="curve" smooth="yes"/>
      <point x="287" y="576" type="line" smooth="yes"/>
      <point x="287" y="674"/>
      <point x="223" y="704"/>
      <point x="165" y="704" type="curve" smooth="yes"/>
      <point x="109" y="704"/>
      <point x="42" y="674"/>
      <point x="42" y="578" type="curve" smooth="yes"/>
      <point x="42" y="514"/>
      <point x="44" y="538"/>
      <point x="44" y="475" type="curve" smooth="yes"/>
      <point x="44" y="390"/>
      <point x="110" y="372"/>
    </contour>
    <contour>
      <point x="192" y="636" type="curve"/>
      <point x="192" y="663"/>
      <point x="192" y="516"/>
      <point x="192" y="449" type="curve" smooth="yes"/>
      <point x="192" y="424"/>
      <point x="180" y="411"/>
      <point x="164" y="411" type="curve" smooth="yes"/>
      <point x="148" y="411"/>
      <point x="136" y="423"/>
      <point x="136" y="449" type="curve" smooth="yes"/>
      <point x="136" y="637" type="line"/>
      <point x="136" y="664"/>
      <point x="152" y="675"/>
      <point x="165" y="675" type="curve"/>
      <point x="179" y="675"/>
      <point x="192" y="663"/>
    </contour>
  </outline>
</glyph>
<glyph name="nine" format="2">
  <advance width="320"/>
  <unicode hex="0039"/>
  <outline>
    <contour>
      <point x="194" y="410" type="line"/>
      <point x="194" y="382"/>
      <point x="181" y="367"/>
      <point x="161" y="367" type="curve" smooth="yes"/>
      <point x="141" y="367"/>
      <point x="128" y="382"/>
      <point x="128" y="409" type="curve"/>
      <point x="128" y="608" type="line"/>
      <point x="128" y="608"/>
      <point x="124" y="657"/>
      <point x="161" y="657" type="curve" smooth="yes"/>
      <point x="198" y="657"/>
      <point x="194" y="619"/>
      <point x="194" y="609" type="curve"/>
      <point x="194" y="287" type="line"/>
      <point x="194" y="216"/>
      <point x="194" y="148"/>
      <point x="194" y="79" type="curve" smooth="yes"/>
      <point x="194" y="64"/>
      <point x="190" y="37"/>
      <point x="160" y="37" type="curve" smooth="yes"/>
      <point x="136" y="37"/>
      <point x="128" y="62"/>
      <point x="128" y="77" type="curve" smooth="yes"/>
      <point x="128" y="142"/>
      <point x="128" y="177"/>
      <point x="128" y="187" type="curve"/>
      <point x="24" y="187" type="line"/>
      <point x="24" y="95" type="line"/>
      <point x="24" y="38"/>
      <point x="81" y="-7"/>
      <point x="161" y="-7" type="curve"/>
      <point x="293" y="-7"/>
      <point x="305" y="53"/>
      <point x="305" y="173" type="curve"/>
      <point x="305" y="245" type="line"/>
      <point x="305" y="555" type="line"/>
      <point x="302" y="632"/>
      <point x="287" y="705"/>
      <point x="161" y="705" type="curve" smooth="yes"/>
      <point x="26" y="705"/>
      <point x="16" y="643"/>
      <point x="16" y="495" type="curve"/>
      <point x="16" y="425" type="line"/>
      <point x="16" y="383"/>
      <point x="14" y="343"/>
      <point x="46" y="323" type="curve" smooth="yes"/>
      <point x="98" y="290"/>
      <point x="175" y="311"/>
      <point x="194" y="337" type="curve"/>
    </contour>
  </outline>
</glyph>
<glyph name="A" format="2">
  <advance width="277"/>
  <unicode hex="0041"/>
  <guideline y="-198"/>
  <guideline y="0"/>
  <guideline y="698"/>
  <guideline y="37"/>
  <guideline x="11"/>
  <guideline x="127"/>
  <guideline x="153"/>
  <outline>
    <contour>
      <point x="207" y="700" type="line"/>
      <point x="77" y="700" type="line"/>
      <point x="26" y="37" type="line"/>
      <point x="11" y="37" type="line"/>
      <point x="11" y="0" type="line"/>
      <point x="127" y="0" type="line"/>
      <point x="127" y="37" type="line"/>
      <point x="105" y="37" type="line"/>
      <point x="143" y="584" type="line"/>
      <point x="137" y="584" type="line"/>
      <point x="174" y="37" type="line"/>
      <point x="153" y="37" type="line"/>
      <point x="153" y="0" type="line"/>
      <point x="266" y="0" type="line"/>
      <point x="266" y="37" type="line"/>
      <point x="253" y="37" type="line"/>
    </contour>
    <contour>
      <point x="83" y="126" type="line"/>
      <point x="202" y="126" type="line"/>
      <point x="202" y="189" type="line"/>
      <point x="83" y="189" type="line"/>
    </contour>
  </outline>
</glyph>
<glyph name="B" format="2">
  <advance width="264"/>
  <unicode hex="0042"/>
  <guideline y="650"/>
  <guideline y="37"/>
  <guideline x="-328"/>
  <guideline y="666"/>
  <outline>
    <contour>
      <point x="10" y="0" type="line"/>
      <point x="93" y="0" type="line"/>
      <point x="107" y="34" type="line"/>
      <point x="107" y="661" type="line"/>
      <point x="120" y="699" type="line"/>
      <point x="11" y="700" type="line"/>
      <point x="11" y="666" type="line"/>
      <point x="29" y="666" type="line"/>
      <point x="29" y="37" type="line"/>
      <point x="10" y="37" type="line"/>
    </contour>
    <contour>
      <point x="31" y="700" type="line"/>
      <point x="107" y="699" type="line"/>
      <point x="107" y="456" type="line"/>
      <point x="31" y="456" type="line"/>
    </contour>
    <contour>
      <point x="11" y="0" type="line"/>
      <point x="26" y="0" type="line"/>
      <point x="26" y="37" type="line"/>
      <point x="11" y="37" type="line"/>
    </contour>
    <contour>
      <point x="242" y="565" type="line"/>
      <point x="242" y="459" type="line"/>
      <point x="243" y="427"/>
      <point x="233" y="383"/>
      <point x="187" y="364" type="curve" smooth="yes"/>
      <point x="154" y="352"/>
      <point x="96" y="353"/>
      <point x="96" y="353" type="curve"/>
      <point x="30" y="387" type="line"/>
      <point x="30" y="451"/>
      <point x="29" y="482"/>
      <point x="29" y="582" type="curve" smooth="yes"/>
      <point x="29" y="608"/>
      <point x="82" y="570"/>
      <point x="107" y="564" type="curve"/>
      <point x="107" y="399" type="line"/>
      <point x="117" y="397" type="line" smooth="yes"/>
      <point x="146" y="393"/>
      <point x="158" y="415"/>
      <point x="160" y="431" type="curve"/>
      <point x="161" y="479"/>
      <point x="162" y="565"/>
      <point x="162" y="565" type="curve"/>
    </contour>
    <contour>
      <point x="254" y="149" type="line"/>
      <point x="252" y="272" type="line" smooth="yes"/>
      <point x="252" y="309"/>
      <point x="233" y="359"/>
      <point x="187" y="381" type="curve" smooth="yes"/>
      <point x="154" y="395"/>
      <point x="92" y="395"/>
      <point x="92" y="395" type="curve"/>
      <point x="36" y="354" type="line"/>
      <point x="36" y="149" type="line"/>
      <point x="105" y="149" type="line"/>
      <point x="107" y="354" type="line"/>
      <point x="117" y="354" type="line" smooth="yes"/>
      <point x="146" y="354"/>
      <point x="158" y="335"/>
      <point x="160" y="316" type="curve"/>
      <point x="161" y="261"/>
      <point x="162" y="149"/>
      <point x="162" y="149" type="curve"/>
    </contour>
    <contour>
      <point x="252" y="243" type="line"/>
      <point x="254" y="149" type="line" smooth="yes"/>
      <point x="257" y="20"/>
      <point x="216" y="0"/>
      <point x="93" y="0" type="curve"/>
      <point x="29" y="36" type="line"/>
      <point x="29" y="241" type="line"/>
      <point x="105" y="243" type="line"/>
      <point x="107" y="38" type="line"/>
      <point x="120" y="36" type="line" smooth="yes"/>
      <point x="149" y="33"/>
      <point x="161" y="55"/>
      <point x="160" y="76" type="curve"/>
      <point x="164" y="129"/>
      <point x="161" y="235"/>
      <point x="162" y="243" type="curve"/>
    </contour>
    <contour>
      <point x="242" y="488" type="line"/>
      <point x="242" y="594" type="line"/>
      <point x="243" y="626"/>
      <point x="233" y="670"/>
      <point x="187" y="689" type="curve" smooth="yes"/>
      <point x="154" y="701"/>
      <point x="92" y="700"/>
      <point x="92" y="700" type="curve"/>
      <point x="12" y="700" type="line"/>
      <point x="12" y="684" type="line"/>
      <point x="16" y="684"/>
      <point x="29" y="671"/>
      <point x="29" y="666" type="curve"/>
      <point x="29" y="482" type="line"/>
      <point x="107" y="488" type="line"/>
      <point x="109" y="666" type="line"/>
      <point x="117" y="666" type="line" smooth="yes"/>
      <point x="146" y="666"/>
      <point x="158" y="649"/>
      <point x="160" y="633" type="curve"/>
      <point x="161" y="585"/>
      <point x="162" y="488"/>
      <point x="162" y="488" type="curve"/>
    </contour>
  </outline>
</glyph>
<glyph name="C" format="2">
  <advance width="234"/>
  <unicode hex="0043"/>
  <outline>
    <contour>
      <point x="89" y="623" type="curve" smooth="yes"/>
      <point x="89" y="648"/>
      <point x="19" y="640"/>
      <point x="17" y="603" type="curve"/>
      <point x="17" y="435"/>
      <point x="10" y="250"/>
      <point x="10" y="93" type="curve" smooth="yes"/>
      <point x="10" y="-9"/>
      <point x="90" y="-27"/>
      <point x="140" y="8" type="curve" smooth="yes"/>
      <point x="168" y="27" type="line"/>
      <point x="168" y="4" type="line"/>
      <point x="224" y="4" type="line"/>
      <point x="224" y="197" type="line"/>
      <point x="162" y="196" type="line"/>
      <point x="162" y="187" type="line" smooth="yes"/>
      <point x="162" y="99"/>
      <point x="146" y="52"/>
      <point x="109" y="62" type="curve" smooth="yes"/>
      <point x="90" y="67"/>
      <point x="87" y="83"/>
      <point x="87" y="132" type="curve" smooth="yes"/>
      <point x="87" y="289"/>
      <point x="87" y="455"/>
    </contour>
    <contour>
      <point x="88" y="82" type="curve" smooth="yes"/>
      <point x="88" y="58"/>
      <point x="14" y="52"/>
      <point x="11" y="89" type="curve"/>
      <point x="13" y="256"/>
      <point x="13.878" y="455.966"/>
      <point x="12.482" y="613.09" type="curve" smooth="yes"/>
      <point x="11.887" y="706.857"/>
      <point x="120.414" y="732.733"/>
      <point x="163.127" y="676.695" type="curve" smooth="yes"/>
      <point x="168.009" y="670.327" type="line"/>
      <point x="168.164" y="693.133" type="line"/>
      <point x="222.337" y="692.767" type="line"/>
      <point x="221.029" y="500.183" type="line"/>
      <point x="160.709" y="501.857" type="line"/>
      <point x="160.769" y="510.726" type="line" smooth="yes"/>
      <point x="161.363" y="598.149"/>
      <point x="146.907" y="645.128"/>
      <point x="111.133" y="635.232" type="curve" smooth="yes"/>
      <point x="92.631" y="630.289"/>
      <point x="88.834" y="615.11"/>
      <point x="88.498" y="565.697" type="curve" smooth="yes"/>
      <point x="87" y="406"/>
      <point x="86" y="241"/>
    </contour>
    <contour>
      <point x="86.985" y="342.705" type="line"/>
      <point x="87.787" y="98.157" type="line"/>
    </contour>
  </outline>
</glyph>
<glyph name="D" format="2">
  <advance width="252"/>
  <unicode hex="0044"/>
  <outline>
    <contour>
      <point x="10.157" y="0.126" type="line"/>
      <point x="148.221" y="0.126" type="line"/>
      <point x="186.207" y="0.8697"/>
      <point x="192.782" y="6.8193"/>
      <point x="205.2" y="15.7437" type="curve" smooth="yes"/>
      <point x="236.612" y="37.311"/>
      <point x="238.073" y="64.0842"/>
      <point x="240.264" y="91.6011" type="curve" smooth="yes"/>
      <point x="242.456" y="119.118"/>
      <point x="240.264" y="600.292"/>
      <point x="240.264" y="600.292" type="curve"/>
      <point x="240.995" y="632.271"/>
      <point x="231.498" y="676.149"/>
      <point x="184.746" y="694.742" type="curve" smooth="yes"/>
      <point x="151.874" y="707.385"/>
      <point x="90.512" y="706.641"/>
      <point x="90.512" y="706.641" type="curve"/>
      <point x="10.157" y="706.641" type="line"/>
      <point x="10.157" y="671.687" type="line"/>
      <point x="24.0365" y="671.687" type="line"/>
      <point x="24.0365" y="35.0799" type="line"/>
      <point x="10.157" y="35.0799" type="line"/>
    </contour>
    <contour>
      <point x="105.122" y="671.687" type="line"/>
      <point x="107.313" y="671.687" type="line" smooth="yes"/>
      <point x="110.966" y="671.687"/>
      <point x="109.505" y="671.687"/>
      <point x="115.349" y="671.687" type="curve" smooth="yes"/>
      <point x="143.838" y="671.687"/>
      <point x="156.257" y="655.326"/>
      <point x="158.448" y="638.964" type="curve"/>
      <point x="163.562" y="58.8783" type="line"/>
      <point x="162.101" y="47.7228"/>
      <point x="160.64" y="37.311"/>
      <point x="124.845" y="37.311" type="curve"/>
      <point x="121.193" y="37.311"/>
      <point x="116.81" y="38.7984"/>
      <point x="111.696" y="39.5421" type="curve"/>
    </contour>
  </outline>
</glyph>
<glyph name="E" format="2">
  <advance width="224"/>
  <unicode hex="0045"/>
  <guideline y="0"/>
  <guideline y="700"/>
  <guideline y="668"/>
  <outline>
    <contour>
      <point x="112" y="365" type="line"/>
      <point x="112" y="428" type="line"/>
    </contour>
    <contour>
      <point x="10" y="700" type="line"/>
      <point x="214" y="700" type="line"/>
      <point x="214" y="525" type="line"/>
      <point x="151" y="525" type="line"/>
      <point x="151" y="668" type="line"/>
      <point x="102" y="668" type="line"/>
      <point x="102" y="428" type="line"/>
      <point x="172" y="428" type="line"/>
      <point x="172" y="365" type="line"/>
      <point x="102" y="365" type="line"/>
      <point x="102" y="32" type="line"/>
      <point x="151" y="32" type="line"/>
      <point x="151" y="228" type="line"/>
      <point x="214" y="228" type="line"/>
      <point x="214" y="-1" type="line"/>
      <point x="10" y="-1" type="line"/>
      <point x="10" y="32" type="line"/>
      <point x="24" y="32" type="line"/>
      <point x="24" y="668" type="line"/>
      <point x="24" y="668" type="line"/>
      <point x="24" y="668" type="line"/>
      <point x="23" y="668" type="line"/>
      <point x="10" y="668" type="line"/>
    </contour>
  </outline>
</glyph>
<glyph name="F" format="2">
  <advance width="222"/>
  <unicode hex="0046"/>
  <outline>
    <contour>
      <point x="171" y="363" type="line"/>
      <point x="171" y="424" type="line"/>
    </contour>
    <contour>
      <point x="10" y="698" type="line"/>
      <point x="212" y="698" type="line"/>
      <point x="212" y="521" type="line"/>
      <point x="150" y="521" type="line"/>
      <point x="150" y="667" type="line"/>
      <point x="101" y="667" type="line"/>
      <point x="101" y="424" type="line"/>
      <point x="171" y="424" type="line"/>
      <point x="171" y="363" type="line"/>
      <point x="101" y="363" type="line"/>
      <point x="101" y="32" type="line"/>
      <point x="113" y="32" type="line"/>
      <point x="113" y="0" type="line"/>
      <point x="10" y="0" type="line"/>
      <point x="10" y="32" type="line"/>
      <point x="24" y="32" type="line"/>
      <point x="24" y="667" type="line"/>
      <point x="24" y="667" type="line"/>
      <point x="24" y="667" type="line"/>
      <point x="23" y="667" type="line"/>
      <point x="10" y="667" type="line"/>
    </contour>
  </outline>
  <guideline angle="0" x="0" y="667"/>
</glyph>
<glyph name="G" format="2">
  <advance width="282"/>
  <unicode hex="0047"/>
  <outline>
    <contour>
      <point x="94.1362" y="623.393" type="curve" smooth="yes"/>
      <point x="94.1362" y="647.517"/>
      <point x="24.3027" y="639.899"/>
      <point x="21.7633" y="603.078" type="curve"/>
      <point x="21.7633" y="435.477"/>
      <point x="15.4148" y="250.101"/>
      <point x="15.4148" y="92.6581" type="curve" smooth="yes"/>
      <point x="15.4148" y="-8.9179"/>
      <point x="95.4059" y="-26.6937"/>
      <point x="144.924" y="7.58821" type="curve" smooth="yes"/>
      <point x="172.858" y="26.6337" type="line"/>
      <point x="172.858" y="3.77911" type="line"/>
      <point x="228.724" y="3.77911" type="line"/>
      <point x="228.724" y="196.774" type="line"/>
      <point x="166.509" y="195.504" type="line"/>
      <point x="166.509" y="186.616" type="line" smooth="yes"/>
      <point x="166.509" y="99.0066"/>
      <point x="151.273" y="52.0277"/>
      <point x="114.451" y="62.1853" type="curve" smooth="yes"/>
      <point x="95.4059" y="67.2641"/>
      <point x="91.5968" y="82.5005"/>
      <point x="91.5968" y="132.019" type="curve" smooth="yes"/>
      <point x="91.5968" y="289.462"/>
      <point x="91.5968" y="454.523"/>
    </contour>
    <contour>
      <point x="92.6756" y="81.6862" type="curve" smooth="yes"/>
      <point x="92.5122" y="57.6132"/>
      <point x="18.5972" y="51.7762"/>
      <point x="16.3842" y="88.5358" type="curve"/>
      <point x="17.5194" y="255.78"/>
      <point x="18.8782" y="455.966"/>
      <point x="17.4822" y="613.09" type="curve" smooth="yes"/>
      <point x="16.8874" y="706.857"/>
      <point x="125.414" y="732.733"/>
      <point x="168.127" y="676.695" type="curve" smooth="yes"/>
      <point x="173.009" y="670.327" type="line"/>
      <point x="173.164" y="693.133" type="line"/>
      <point x="227.337" y="692.767" type="line"/>
      <point x="226.029" y="500.183" type="line"/>
      <point x="165.709" y="501.857" type="line"/>
      <point x="165.769" y="510.726" type="line" smooth="yes"/>
      <point x="166.363" y="598.149"/>
      <point x="151.907" y="645.128"/>
      <point x="116.133" y="635.232" type="curve" smooth="yes"/>
      <point x="97.6306" y="630.289"/>
      <point x="93.8338" y="615.11"/>
      <point x="93.4984" y="565.697" type="curve" smooth="yes"/>
      <point x="92.4148" y="406.055"/>
      <point x="91.2968" y="241.345"/>
    </contour>
    <contour>
      <point x="91.9848" y="342.705" type="line"/>
      <point x="92.7874" y="98.1572" type="line"/>
    </contour>
    <contour>
      <point x="134" y="296" type="line"/>
      <point x="272" y="296" type="line"/>
      <point x="272" y="240.182" type="line"/>
      <point x="242" y="240.182" type="line"/>
      <point x="242" y="0.962001" type="line"/>
      <point x="166" y="0.962001" type="line"/>
      <point x="166" y="240.182" type="line"/>
      <point x="134" y="240.182" type="line"/>
    </contour>
  </outline>
</glyph>
<glyph name="H" format="2">
  <advance width="228"/>
  <unicode hex="0048"/>
  <outline>
    <contour>
      <point x="10" y="2" type="line"/>
      <point x="112" y="2" type="line"/>
      <point x="112" y="40" type="line"/>
      <point x="100" y="40" type="line"/>
      <point x="100" y="361" type="line"/>
      <point x="129" y="361" type="line"/>
      <point x="129" y="40" type="line"/>
      <point x="116" y="40" type="line"/>
      <point x="116" y="2" type="line"/>
      <point x="218" y="2" type="line"/>
      <point x="218" y="40" type="line"/>
      <point x="204" y="40" type="line"/>
      <point x="204" y="660" type="line"/>
      <point x="218" y="660" type="line"/>
      <point x="218" y="700" type="line"/>
      <point x="116" y="700" type="line"/>
      <point x="116" y="660" type="line"/>
      <point x="129" y="660" type="line"/>
      <point x="129" y="424" type="line"/>
      <point x="100" y="424" type="line"/>
      <point x="100" y="660" type="line"/>
      <point x="112" y="660" type="line"/>
      <point x="112" y="700" type="line"/>
      <point x="10" y="700" type="line"/>
      <point x="10" y="660" type="line"/>
      <point x="24" y="660" type="line"/>
      <point x="24" y="40" type="line"/>
      <point x="10" y="40" type="line"/>
    </contour>
  </outline>
  <guideline angle="90" x="29" y="0"/>
  <guideline angle="90" x="133" y="0"/>
  <guideline angle="90" x="173" y="0"/>
  <guideline angle="0" x="0" y="792"/>
  <guideline angle="90" x="-1246" y="0"/>
  <guideline angle="0" x="0" y="361"/>
  <guideline angle="90" x="-556" y="0"/>
  <guideline angle="90" x="924" y="0"/>
  <guideline angle="90" x="903" y="0"/>
  <guideline angle="90" x="943" y="0"/>
</glyph>
<glyph name="I" format="2">
  <advance width="124"/>
  <unicode hex="0049"/>
  <guideline y="700"/>
  <guideline y="0"/>
  <guideline x="208"/>
  <outline>
    <contour>
      <point x="11" y="0" type="line"/>
      <point x="114" y="0" type="line"/>
      <point x="114" y="40" type="line"/>
      <point x="101" y="40" type="line"/>
      <point x="101" y="660" type="line"/>
      <point x="114" y="660" type="line"/>
      <point x="114" y="700" type="line"/>
      <point x="11" y="700" type="line"/>
      <point x="11" y="660" type="line"/>
      <point x="25" y="660" type="line"/>
      <point x="25" y="40" type="line"/>
      <point x="11" y="40" type="line"/>
    </contour>
  </outline>
</glyph>
<glyph name="J" format="2">
  <advance width="246"/>
  <unicode hex="004A"/>
  <guideline y="1342"/>
  <guideline x="-5" y="-2" angle="0.1555"/>
  <guideline y="700"/>
  <guideline y="665"/>
  <outline>
    <contour>
      <point x="162" y="55" type="line"/>
      <point x="210" y="97" type="line"/>
      <point x="209" y="665" type="line"/>
      <point x="231" y="665" type="line"/>
      <point x="231" y="700" type="line"/>
      <point x="112" y="700" type="line"/>
      <point x="112" y="665" type="line"/>
      <point x="131" y="665" type="line"/>
      <point x="131" y="47" type="line"/>
    </contour>
    <contour>
      <point x="130.818" y="622.123" type="curve"/>
      <point x="130.818" y="646.247"/>
      <point x="208.27" y="637.359"/>
      <point x="208.27" y="600.538" type="curve"/>
      <point x="208.27" y="432.938"/>
      <point x="209.54" y="234.865"/>
      <point x="210.809" y="77.4217" type="curve" smooth="yes"/>
      <point x="210.809" y="-11.4573"/>
      <point x="96.5364" y="-36.8513"/>
      <point x="41.9392" y="17.7458" type="curve"/>
      <point x="3.84825" y="55.8368"/>
      <point x="12.7361" y="116.782"/>
      <point x="10.1967" y="181.537" type="curve"/>
      <point x="77.4908" y="180.267" type="line"/>
      <point x="77.4908" y="171.38" type="line" smooth="yes"/>
      <point x="77.4908" y="55.8368"/>
      <point x="78.7605" y="29.1731"/>
      <point x="115.582" y="36.7913" type="curve" smooth="yes"/>
      <point x="134.627" y="40.6004"/>
      <point x="130.818" y="59.6459"/>
      <point x="130.818" y="109.164" type="curve" smooth="yes"/>
      <point x="130.818" y="266.607"/>
      <point x="133.358" y="453.253"/>
    </contour>
  </outline>
</glyph>
<glyph name="K" format="2">
  <advance width="252"/>
  <unicode hex="004B"/>
  <guideline y="665"/>
  <outline>
    <contour>
      <point x="10.7952" y="699.76" type="line"/>
      <point x="10.7952" y="665.13" type="line"/>
      <point x="24.7944" y="665.13" type="line"/>
      <point x="24.7944" y="34.4296" type="line"/>
      <point x="10.7952" y="34.4296" type="line"/>
      <point x="10.7952" y="-0.2" type="line"/>
      <point x="113.947" y="-0.2" type="line"/>
      <point x="113.947" y="34.4296" type="line"/>
      <point x="101.422" y="34.4296" type="line"/>
      <point x="101.422" y="407.25" type="line"/>
      <point x="152.261" y="35.1664" type="line"/>
      <point x="138.262" y="35.1664" type="line"/>
      <point x="138.262" y="-0.2" type="line"/>
      <point x="241.414" y="-0.2" type="line"/>
      <point x="241.414" y="35.1664" type="line"/>
      <point x="228.888" y="35.1664" type="line"/>
      <point x="161.102" y="429.354" type="line"/>
      <point x="217.099" y="665.13" type="line"/>
      <point x="230.362" y="665.13" type="line"/>
      <point x="230.362" y="699.76" type="line"/>
      <point x="140.472" y="699.76" type="line"/>
      <point x="140.472" y="665.13" type="line"/>
      <point x="153.734" y="665.13" type="line"/>
      <point x="101.422" y="455.142" type="line"/>
      <point x="101.422" y="665.13" type="line"/>
      <point x="113.947" y="665.13" type="line"/>
      <point x="113.947" y="699.76" type="line"/>
    </contour>
  </outline>
</glyph>
<glyph name="L" format="2">
  <advance width="227"/>
  <unicode hex="004C"/>
  <outline>
    <contour>
      <point x="10" y="0" type="line"/>
      <point x="217" y="0" type="line"/>
      <point x="217" y="239" type="line"/>
      <point x="157" y="239" type="line"/>
      <point x="157" y="35" type="line"/>
      <point x="101" y="35" type="line"/>
      <point x="101" y="665" type="line"/>
      <point x="113" y="665" type="line"/>
      <point x="113" y="700" type="line"/>
      <point x="10" y="700" type="line"/>
      <point x="10" y="665" type="line"/>
      <point x="24" y="665" type="line"/>
      <point x="24" y="35" type="line"/>
      <point x="10" y="35" type="line"/>
    </contour>
  </outline>
</glyph>
<glyph name="M" format="2">
  <advance width="409"/>
  <unicode hex="004D"/>
  <guideline y="666"/>
  <outline>
    <contour>
      <point x="213.067" y="0.2389" type="curve"/>
      <point x="203.497" y="0.2389" type="line"/>
      <point x="189.512" y="0.2389" type="line"/>
      <point x="104.124" y="500.051" type="line"/>
      <point x="101.18" y="35.5717" type="line"/>
      <point x="113.693" y="35.5717" type="line"/>
      <point x="113.693" y="0.975" type="line"/>
      <point x="10.6393" y="0.975" type="line"/>
      <point x="10.6393" y="35.5717" type="line"/>
      <point x="24.6252" y="35.5717" type="line"/>
      <point x="24.6252" y="665.673" type="line"/>
      <point x="10.6393" y="665.673" type="line"/>
      <point x="10.6393" y="700.27" type="line"/>
      <point x="143.873" y="700.27" type="line"/>
      <point x="204.97" y="428.649" type="line"/>
      <point x="204.97" y="428.649"/>
      <point x="213.067" y="0.2389"/>
    </contour>
    <contour>
      <point x="204.35" y="0.2389" type="line"/>
      <point x="222.752" y="0.2389" type="line"/>
      <point x="297.835" y="500.051" type="line"/>
      <point x="306.668" y="35.5717" type="line"/>
      <point x="294.154" y="35.5717" type="line"/>
      <point x="294.154" y="0.975" type="line"/>
      <point x="397.208" y="0.975" type="line"/>
      <point x="397.208" y="35.5717" type="line"/>
      <point x="383.222" y="35.5717" type="line"/>
      <point x="383.222" y="665.673" type="line"/>
      <point x="397.208" y="665.673" type="line"/>
      <point x="397.208" y="700.27" type="line"/>
      <point x="263.974" y="700.27" type="line"/>
      <point x="203.614" y="428.649" type="line"/>
      <point x="203.614" y="428.649"/>
      <point x="206.558" y="0.2389"/>
      <point x="206.558" y="0.2389" type="curve"/>
    </contour>
  </outline>
</glyph>
<glyph name="N" format="2">
  <advance width="293"/>
  <unicode hex="004E"/>
  <outline>
    <contour>
      <point x="282.967" y="700.41" type="curve"/>
      <point x="282.967" y="688.629"/>
      <point x="282.967" y="676.848"/>
      <point x="282.967" y="665.068" type="curve"/>
      <point x="270.45" y="665.068" type="line"/>
      <point x="270.45" y="445.65"/>
      <point x="263.087" y="220.342"/>
      <point x="263.087" y="0.925002" type="curve"/>
      <point x="177.676" y="0.188702" type="line"/>
      <point x="101.101" y="428.715" type="line"/>
      <point x="101.101" y="35.5311" type="line"/>
      <point x="113.618" y="35.5311" type="line"/>
      <point x="113.618" y="0.925002" type="line"/>
      <point x="10.536" y="0.925002" type="line"/>
      <point x="10.536" y="35.5311" type="line"/>
      <point x="24.5257" y="35.5311" type="line"/>
      <point x="24.5257" y="665.068" type="line"/>
      <point x="10.536" y="665.068" type="line"/>
      <point x="10.536" y="700.41" type="line"/>
      <point x="104.782" y="700.41" type="line"/>
      <point x="193.875" y="276.301" type="line"/>
      <point x="193.875" y="665.068" type="line"/>
      <point x="179.885" y="665.068" type="line"/>
      <point x="179.885" y="700.41" type="line"/>
      <point x="213.755" y="700.41"/>
      <point x="249.097" y="700.41"/>
    </contour>
  </outline>
  <guideline angle="0" x="0" y="665"/>
</glyph>
<glyph name="O" format="2">
  <advance width="228"/>
  <unicode hex="004F"/>
  <outline>
    <contour>
      <point x="89" y="675" type="line"/>
      <point x="89" y="696"/>
      <point x="140" y="696"/>
      <point x="140" y="675" type="curve"/>
      <point x="140" y="34" type="line" smooth="yes"/>
      <point x="140" y="0"/>
      <point x="89" y="3"/>
      <point x="89" y="35" type="curve" smooth="yes"/>
    </contour>
    <contour>
      <point x="11" y="77" type="curve" smooth="yes"/>
      <point x="11" y="-42"/>
      <point x="217" y="-45"/>
      <point x="217" y="77" type="curve" smooth="yes"/>
      <point x="217" y="253"/>
      <point x="217" y="449"/>
      <point x="217" y="624" type="curve"/>
      <point x="217" y="743"/>
      <point x="13" y="747"/>
      <point x="11" y="624" type="curve"/>
      <point x="11" y="449"/>
      <point x="11" y="252"/>
    </contour>
    <contour>
      <point x="88.5" y="675" type="curve" smooth="yes"/>
      <point x="88.5" y="35" type="line" smooth="yes"/>
      <point x="88.5" y="2.32067"/>
      <point x="140.5" y="-0.652607"/>
      <point x="140.5" y="34" type="curve" smooth="yes"/>
      <point x="140.5" y="675" type="line" smooth="yes"/>
      <point x="140.5" y="696.684"/>
      <point x="88.5" y="696.649"/>
    </contour>
    <contour>
      <point x="89.5" y="675" type="line" smooth="yes"/>
      <point x="89.5" y="695.35"/>
      <point x="139.5" y="695.317"/>
      <point x="139.5" y="675" type="curve" smooth="yes"/>
      <point x="139.5" y="34" type="line" smooth="yes"/>
      <point x="139.5" y="0.708188"/>
      <point x="89.5" y="3.62859"/>
      <point x="89.5" y="35" type="curve" smooth="yes"/>
    </contour>
    <contour>
      <point x="11.5" y="77" type="curve" smooth="yes"/>
      <point x="11.5" y="623.993" type="line"/>
      <point x="13.487" y="746.193"/>
      <point x="216.5" y="742.475"/>
      <point x="216.5" y="624" type="curve" smooth="yes"/>
      <point x="216.5" y="77" type="line" smooth="yes"/>
      <point x="216.5" y="-44.3671"/>
      <point x="11.5" y="-41.2994"/>
    </contour>
    <contour>
      <point x="10.5" y="77" type="line" smooth="yes"/>
      <point x="10.5" y="-42.8095"/>
      <point x="217.5" y="-45.5237"/>
      <point x="217.5" y="77" type="curve" smooth="yes"/>
      <point x="217.5" y="624" type="line" smooth="yes"/>
      <point x="217.5" y="743.732"/>
      <point x="12.5051" y="747.596"/>
      <point x="10.5" y="624.004" type="curve"/>
    </contour>
  </outline>
  <guideline angle="0" x="0" y="715"/>
  <guideline angle="0" x="0" y="783"/>
</glyph>
<glyph name="P" format="2">
  <advance width="266"/>
  <unicode hex="0050"/>
  <outline>
    <contour>
      <point x="10" y="-3" type="line"/>
      <point x="150" y="-3" type="line"/>
      <point x="150" y="44" type="line"/>
      <point x="123" y="44" type="line"/>
      <point x="120" y="661" type="line"/>
      <point x="133" y="699" type="line"/>
      <point x="11" y="700" type="line"/>
      <point x="10" y="650" type="line"/>
      <point x="29" y="650" type="line"/>
      <point x="29" y="44" type="line"/>
      <point x="10" y="44" type="line"/>
    </contour>
    <contour>
      <point x="255.147" y="487.814" type="line"/>
      <point x="255.147" y="594.134" type="line"/>
      <point x="255.877" y="626.105"/>
      <point x="246.383" y="669.971"/>
      <point x="199.644" y="688.559" type="curve" smooth="yes"/>
      <point x="166.78" y="701.198"/>
      <point x="105.435" y="700.455"/>
      <point x="105.435" y="700.455" type="curve"/>
      <point x="25.1022" y="700.455" type="line"/>
      <point x="25.1022" y="665.51" type="line"/>
      <point x="38.9779" y="665.51" type="line"/>
      <point x="38.9779" y="487.814" type="line"/>
      <point x="117.85" y="487.814" type="line"/>
      <point x="120.041" y="665.51" type="line"/>
      <point x="130.265" y="665.51" type="line" smooth="yes"/>
      <point x="158.747" y="665.51"/>
      <point x="171.162" y="649.153"/>
      <point x="173.353" y="632.796" type="curve"/>
      <point x="174.083" y="585.212"/>
      <point x="174.814" y="487.814"/>
      <point x="174.814" y="487.814" type="curve"/>
    </contour>
    <contour>
      <point x="255.147" y="565.186" type="line"/>
      <point x="255.147" y="458.866" type="line"/>
      <point x="255.877" y="426.895"/>
      <point x="246.383" y="383.029"/>
      <point x="199.644" y="364.441" type="curve" smooth="yes"/>
      <point x="166.78" y="351.802"/>
      <point x="105.435" y="352.545"/>
      <point x="105.435" y="352.545" type="curve"/>
      <point x="38.9779" y="387.49" type="line"/>
      <point x="38.9779" y="565.186" type="line"/>
      <point x="117.85" y="565.186" type="line"/>
      <point x="120.041" y="387.49" type="line"/>
      <point x="130.265" y="387.49" type="line" smooth="yes"/>
      <point x="158.747" y="387.49"/>
      <point x="171.162" y="403.847"/>
      <point x="173.353" y="420.204" type="curve"/>
      <point x="174.083" y="467.788"/>
      <point x="174.814" y="565.186"/>
      <point x="174.814" y="565.186" type="curve"/>
    </contour>
  </outline>
</glyph>
<glyph name="Q" format="2">
  <advance width="274"/>
  <unicode hex="0051"/>
  <guideline x="103"/>
  <guideline y="716"/>
  <guideline y="-16"/>
  <guideline y="-423"/>
  <outline>
    <contour>
      <point x="89" y="677" type="line" smooth="yes"/>
      <point x="89" y="698"/>
      <point x="140" y="698"/>
      <point x="140" y="677" type="curve" smooth="yes"/>
      <point x="140" y="42" type="line" smooth="yes"/>
      <point x="140" y="8"/>
      <point x="89" y="11"/>
      <point x="89" y="43" type="curve" smooth="yes"/>
    </contour>
    <contour>
      <point x="11" y="75" type="curve" smooth="yes"/>
      <point x="11" y="-44"/>
      <point x="217" y="-47"/>
      <point x="217" y="75" type="curve" smooth="yes"/>
      <point x="217" y="251"/>
      <point x="217" y="451"/>
      <point x="217" y="626" type="curve" smooth="yes"/>
      <point x="217" y="745"/>
      <point x="13" y="749"/>
      <point x="11" y="626" type="curve"/>
      <point x="11" y="451"/>
      <point x="11" y="250"/>
    </contour>
    <contour>
      <point x="88.5" y="677" type="curve" smooth="yes"/>
      <point x="88.5" y="43" type="line" smooth="yes"/>
      <point x="88.5" y="10.3207"/>
      <point x="140.5" y="7.34739"/>
      <point x="140.5" y="42" type="curve" smooth="yes"/>
      <point x="140.5" y="677" type="line" smooth="yes"/>
      <point x="140.5" y="698.684"/>
      <point x="88.5" y="698.649"/>
    </contour>
    <contour>
      <point x="89.5" y="677" type="line" smooth="yes"/>
      <point x="89.5" y="697.35"/>
      <point x="139.5" y="697.317"/>
      <point x="139.5" y="677" type="curve" smooth="yes"/>
      <point x="139.5" y="42" type="line" smooth="yes"/>
      <point x="139.5" y="8.70819"/>
      <point x="89.5" y="11.6286"/>
      <point x="89.5" y="43" type="curve" smooth="yes"/>
    </contour>
    <contour>
      <point x="11.5" y="75" type="curve" smooth="yes"/>
      <point x="11.5" y="625.993" type="line"/>
      <point x="13.487" y="748.193"/>
      <point x="216.5" y="744.475"/>
      <point x="216.5" y="626" type="curve" smooth="yes"/>
      <point x="216.5" y="75" type="line" smooth="yes"/>
      <point x="216.5" y="-46.3671"/>
      <point x="11.5" y="-43.2994"/>
    </contour>
    <contour>
      <point x="10.5" y="75" type="line" smooth="yes"/>
      <point x="10.5" y="-44.8095"/>
      <point x="217.5" y="-47.5237"/>
      <point x="217.5" y="75" type="curve" smooth="yes"/>
      <point x="217.5" y="626" type="line" smooth="yes"/>
      <point x="217.5" y="745.732"/>
      <point x="12.5051" y="749.596"/>
      <point x="10.5" y="626.004" type="curve"/>
    </contour>
    <contour>
      <point x="164.296" y="59.7589" type="curve"/>
      <point x="156.476" y="64.9723"/>
      <point x="151.263" y="78.0058"/>
      <point x="130.409" y="85.8259" type="curve"/>
      <point x="116.507" y="91.0393"/>
      <point x="102.604" y="86.6948"/>
      <point x="102.604" y="86.6948" type="curve"/>
      <point x="102.604" y="41.512" type="line"/>
      <point x="102.604" y="41.512"/>
      <point x="122.589" y="39.7742"/>
      <point x="133.016" y="18.9206" type="curve"/>
      <point x="150.394" y="-0.1952"/>
      <point x="159.083" y="35.4297"/>
      <point x="178.199" y="11.9694" type="curve" smooth="yes"/>
      <point x="213.824" y="-31.4756"/>
      <point x="254.662" y="-21.0488"/>
      <point x="263.351" y="21.5273" type="curve" smooth="yes"/>
      <point x="263.351" y="21.5273"/>
      <point x="265.958" y="43.2498"/>
      <point x="255.531" y="50.201" type="curve" smooth="yes"/>
      <point x="239.891" y="60.6278"/>
      <point x="219.037" y="51.9388"/>
      <point x="209.479" y="64.1034" type="curve"/>
      <point x="202.528" y="66.7101"/>
      <point x="164.296" y="59.7589"/>
    </contour>
  </outline>
</glyph>
<glyph name="R" format="2">
  <advance width="295"/>
  <unicode hex="0052"/>
  <guideline y="45"/>
  <guideline x="290"/>
  <guideline x="10"/>
  <outline>
    <contour>
      <point x="97" y="347" type="line"/>
      <point x="97" y="387" type="line"/>
      <point x="130" y="387" type="line" smooth="yes"/>
      <point x="162" y="387"/>
      <point x="179" y="399"/>
      <point x="179" y="420" type="curve" smooth="yes"/>
      <point x="179" y="612" type="line" smooth="yes"/>
      <point x="179" y="646"/>
      <point x="161" y="660"/>
      <point x="130" y="660" type="curve" smooth="yes"/>
      <point x="85" y="660" type="line"/>
      <point x="85" y="700" type="line"/>
      <point x="148" y="700" type="line" smooth="yes"/>
      <point x="218" y="700"/>
      <point x="255" y="668"/>
      <point x="255" y="594" type="curve" smooth="yes"/>
      <point x="255" y="459" type="line" smooth="yes"/>
      <point x="255" y="389"/>
      <point x="199" y="347"/>
      <point x="134" y="347" type="curve" smooth="yes"/>
    </contour>
    <contour>
      <point x="10" y="0" type="line"/>
      <point x="10" y="40" type="line"/>
      <point x="29" y="40" type="line"/>
      <point x="29" y="660" type="line"/>
      <point x="10" y="660" type="line"/>
      <point x="10" y="700" type="line"/>
      <point x="105" y="700" type="line"/>
      <point x="105" y="40" type="line"/>
      <point x="133" y="40" type="line"/>
      <point x="133" y="0" type="line"/>
    </contour>
    <contour>
      <point x="260" y="278" type="curve" smooth="yes"/>
      <point x="260" y="92" type="line" smooth="yes"/>
      <point x="260" y="69"/>
      <point x="268" y="53"/>
      <point x="285" y="50" type="curve"/>
      <point x="285" y="0" type="line"/>
      <point x="244" y="0" type="line" smooth="yes"/>
      <point x="198" y="0"/>
      <point x="170" y="13"/>
      <point x="170" y="50" type="curve" smooth="yes"/>
      <point x="170" y="306" type="line" smooth="yes"/>
      <point x="170" y="335"/>
      <point x="163" y="347"/>
      <point x="138" y="347" type="curve" smooth="yes"/>
      <point x="97" y="347" type="line"/>
      <point x="97" y="378" type="line"/>
      <point x="169" y="378" type="line" smooth="yes"/>
      <point x="206" y="378"/>
      <point x="260" y="358"/>
    </contour>
  </outline>
</glyph>
<glyph name="S" format="2">
  <advance width="284"/>
  <unicode hex="0053"/>
  <outline>
    <contour>
      <point x="251" y="700" type="line"/>
      <point x="251" y="500" type="line"/>
      <point x="190" y="500" type="line"/>
      <point x="182" y="576"/>
      <point x="172" y="646"/>
      <point x="137" y="646" type="curve" smooth="yes"/>
      <point x="112" y="646"/>
      <point x="108" y="623"/>
      <point x="108" y="583" type="curve" smooth="yes"/>
      <point x="108" y="508"/>
      <point x="152" y="451"/>
      <point x="184" y="386" type="curve" smooth="yes"/>
      <point x="232" y="290"/>
      <point x="274" y="212"/>
      <point x="274" y="149" type="curve" smooth="yes"/>
      <point x="274" y="36"/>
      <point x="231" y="-10"/>
      <point x="178" y="-10" type="curve" smooth="yes"/>
      <point x="146" y="-10"/>
      <point x="115" y="5"/>
      <point x="101" y="21" type="curve"/>
      <point x="100" y="0" type="line"/>
      <point x="25" y="0" type="line"/>
      <point x="23" y="210" type="line"/>
      <point x="89" y="210" type="line"/>
      <point x="100" y="109"/>
      <point x="119" y="62"/>
      <point x="155" y="62" type="curve" smooth="yes"/>
      <point x="172" y="62"/>
      <point x="192" y="75"/>
      <point x="192" y="136" type="curve" smooth="yes"/>
      <point x="192" y="211"/>
      <point x="147" y="276"/>
      <point x="108" y="348" type="curve" smooth="yes"/>
      <point x="70" y="419"/>
      <point x="22" y="486"/>
      <point x="22" y="599" type="curve" smooth="yes"/>
      <point x="22" y="676"/>
      <point x="73" y="710"/>
      <point x="112" y="710" type="curve" smooth="yes"/>
      <point x="147" y="710"/>
      <point x="159" y="698"/>
      <point x="178" y="677" type="curve"/>
      <point x="178" y="700" type="line"/>
    </contour>
  </outline>
</glyph>
<glyph name="T" format="2">
  <advance width="259"/>
  <unicode hex="0054"/>
  <guideline y="0"/>
  <outline>
    <contour>
      <point x="69" y="0" type="line"/>
      <point x="187" y="0" type="line"/>
      <point x="187" y="35" type="line"/>
      <point x="167" y="35" type="line"/>
      <point x="167" y="665" type="line"/>
      <point x="195" y="665" type="line"/>
      <point x="195" y="497" type="line"/>
      <point x="249" y="497" type="line"/>
      <point x="249" y="700" type="line"/>
      <point x="10" y="700" type="line"/>
      <point x="10" y="497" type="line"/>
      <point x="63" y="497" type="line"/>
      <point x="63" y="665" type="line"/>
      <point x="91" y="665" type="line"/>
      <point x="91" y="35" type="line"/>
      <point x="69" y="35" type="line"/>
    </contour>
  </outline>
</glyph>
<glyph name="U" format="2">
  <advance width="267"/>
  <unicode hex="0055"/>
  <guideline y="-18"/>
  <outline>
    <contour>
      <point x="160" y="693" type="line"/>
      <point x="160" y="29" type="line" smooth="yes"/>
      <point x="160" y="-5"/>
      <point x="109" y="-2"/>
      <point x="109" y="30" type="curve" smooth="yes"/>
      <point x="109" y="693" type="line"/>
      <point x="31" y="693" type="line"/>
      <point x="31" y="72" type="line" smooth="yes"/>
      <point x="31" y="-47"/>
      <point x="237" y="-50"/>
      <point x="237" y="72" type="curve" smooth="yes"/>
      <point x="237" y="693" type="line"/>
    </contour>
    <contour>
      <point x="11" y="665" type="line"/>
      <point x="129" y="665" type="line"/>
      <point x="129" y="700" type="line"/>
      <point x="11" y="700" type="line"/>
    </contour>
    <contour>
      <point x="138" y="664" type="line"/>
      <point x="256" y="664" type="line"/>
      <point x="256" y="699" type="line"/>
      <point x="138" y="699" type="line"/>
    </contour>
    <contour>
      <point x="160.5" y="692.5" type="line"/>
      <point x="236.5" y="692.5" type="line"/>
      <point x="236.5" y="72" type="line" smooth="yes"/>
      <point x="236.5" y="-49.3671"/>
      <point x="31.5" y="-46.2994"/>
      <point x="31.5" y="72" type="curve" smooth="yes"/>
      <point x="31.5" y="692.5" type="line"/>
      <point x="108.5" y="692.5" type="line"/>
      <point x="108.5" y="30" type="line" smooth="yes"/>
      <point x="108.5" y="-2.67933"/>
      <point x="160.5" y="-5.65261"/>
      <point x="160.5" y="29" type="curve" smooth="yes"/>
    </contour>
    <contour>
      <point x="159.5" y="693.5" type="line"/>
      <point x="159.5" y="29" type="line" smooth="yes"/>
      <point x="159.5" y="-4.29181"/>
      <point x="109.5" y="-1.37141"/>
      <point x="109.5" y="30" type="curve" smooth="yes"/>
      <point x="109.5" y="693.5" type="line"/>
      <point x="30.5" y="693.5" type="line"/>
      <point x="30.5" y="72" type="line" smooth="yes"/>
      <point x="30.5" y="-47.8095"/>
      <point x="237.5" y="-50.5237"/>
      <point x="237.5" y="72" type="curve" smooth="yes"/>
      <point x="237.5" y="693.5" type="line"/>
    </contour>
    <contour>
      <point x="11.5" y="665.5" type="line"/>
      <point x="11.5" y="699.5" type="line"/>
      <point x="128.5" y="699.5" type="line"/>
      <point x="128.5" y="665.5" type="line"/>
    </contour>
    <contour>
      <point x="10.5" y="664.5" type="line"/>
      <point x="129.5" y="664.5" type="line"/>
      <point x="129.5" y="700.5" type="line"/>
      <point x="10.5" y="700.5" type="line"/>
    </contour>
    <contour>
      <point x="138.5" y="664.5" type="line"/>
      <point x="138.5" y="698.5" type="line"/>
      <point x="255.5" y="698.5" type="line"/>
      <point x="255.5" y="664.5" type="line"/>
    </contour>
    <contour>
      <point x="137.5" y="663.5" type="line"/>
      <point x="256.5" y="663.5" type="line"/>
      <point x="256.5" y="699.5" type="line"/>
      <point x="137.5" y="699.5" type="line"/>
    </contour>
  </outline>
</glyph>
<glyph name="V" format="2">
  <advance width="249"/>
  <unicode hex="0056"/>
  <outline>
    <contour>
      <point x="162.677" y="1.3435" type="curve"/>
      <point x="98.6965" y="665.842" type="line"/>
      <point x="111.224" y="666.239" type="line"/>
      <point x="111.097" y="700.223" type="line"/>
      <point x="10.611" y="699.975" type="line"/>
      <point x="11.5375" y="665.325" type="line"/>
      <point x="25.531" y="665.855" type="line"/>
      <point x="85.913" y="0.291504" type="line"/>
      <point x="85.913" y="0.291504"/>
      <point x="145.818" y="-0.185996"/>
    </contour>
    <contour>
      <point x="150.303" y="665.842" type="line"/>
      <point x="137.776" y="666.239" type="line"/>
      <point x="137.903" y="700.223" type="line"/>
      <point x="238.389" y="699.975" type="line"/>
      <point x="237.462" y="665.325" type="line"/>
      <point x="223.469" y="665.855" type="line"/>
      <point x="163.087" y="0.291504" type="line"/>
      <point x="163.087" y="0.291504"/>
      <point x="87.056" y="1.277"/>
      <point x="87.056" y="1.277" type="curve"/>
    </contour>
  </outline>
  <guideline angle="0" x="0" y="700"/>
  <guideline angle="0" x="0" y="0"/>
</glyph>
<glyph name="W" format="2">
  <advance width="422"/>
  <unicode hex="0057"/>
  <outline>
    <contour>
      <point x="163.124" y="1.1018" type="curve"/>
      <point x="99.05" y="666.053" type="line"/>
      <point x="112.386" y="665.785" type="line"/>
      <point x="112.257" y="699.792" type="line"/>
      <point x="10.9013" y="700.204" type="line"/>
      <point x="11.0309" y="666.196" type="line"/>
      <point x="25.8341" y="666.061" type="line"/>
      <point x="86.3069" y="0.0433961" type="line"/>
      <point x="86.3069" y="0.0433961"/>
      <point x="146.253" y="-0.430004"/>
    </contour>
    <contour>
      <point x="184.963" y="570.3" type="line"/>
      <point x="258.179" y="570.309" type="line"/>
      <point x="185.693" y="0.0433961" type="line"/>
      <point x="86.6049" y="0.165796" type="line"/>
    </contour>
    <contour>
      <point x="313.124" y="1.1018" type="curve"/>
      <point x="249.05" y="666.053" type="line"/>
      <point x="261.586" y="666.452" type="line"/>
      <point x="261.523" y="699.726" type="line"/>
      <point x="160.901" y="700.204" type="line"/>
      <point x="161.031" y="666.196" type="line"/>
      <point x="175.834" y="666.061" type="line"/>
      <point x="236.307" y="0.0433961" type="line"/>
      <point x="236.307" y="0.0433961"/>
      <point x="296.253" y="-0.430004"/>
    </contour>
    <contour>
      <point x="322.95" y="666.053" type="line"/>
      <point x="310.414" y="666.452" type="line"/>
      <point x="310.477" y="699.726" type="line"/>
      <point x="411.099" y="700.204" type="line"/>
      <point x="410.969" y="666.196" type="line"/>
      <point x="396.166" y="666.061" type="line"/>
      <point x="335.693" y="0.0433961" type="line"/>
      <point x="335.693" y="0.0433961"/>
      <point x="259.61" y="1.0352"/>
      <point x="259.61" y="1.0352" type="curve"/>
    </contour>
  </outline>
  <guideline angle="0" x="0" y="0"/>
  <guideline angle="0" x="0" y="700"/>
  <guideline angle="90" x="112" y="0"/>
  <guideline angle="90" x="161" y="0"/>
  <guideline angle="0" x="0" y="666"/>
  <guideline angle="90" x="262" y="0"/>
  <guideline angle="90" x="310" y="0"/>
  <guideline angle="90" x="411" y="0"/>
</glyph>
<glyph name="X" format="2">
  <advance width="348"/>
  <unicode hex="0058"/>
  <outline>
    <contour>
      <point x="212.623" y="-0.865306" type="line"/>
      <point x="322.802" y="-0.311907" type="line"/>
      <point x="322.577" y="30.2434" type="line"/>
      <point x="306.255" y="29.9771" type="line"/>
      <point x="110.448" y="664.879" type="line"/>
      <point x="122.49" y="665.228" type="line"/>
      <point x="121.65" y="699.961" type="line"/>
      <point x="10.6724" y="700.001" type="line"/>
      <point x="10.8159" y="665.166" type="line"/>
      <point x="27.138" y="665.432" type="line"/>
      <point x="225.627" y="31.6356" type="line"/>
      <point x="211.496" y="30.9802" type="line"/>
    </contour>
    <contour>
      <point x="122.424" y="-0.824306" type="line"/>
      <point x="12.2448" y="-0.270907" type="line"/>
      <point x="12.4702" y="30.2844" type="line"/>
      <point x="28.7923" y="30.0181" type="line"/>
      <point x="224.599" y="664.92" type="line"/>
      <point x="212.557" y="665.269" type="line"/>
      <point x="213.397" y="700.002" type="line"/>
      <point x="325.767" y="699.837" type="line"/>
      <point x="326.32" y="664.9" type="line"/>
      <point x="314.974" y="665.145" type="line"/>
      <point x="109.42" y="31.6766" type="line"/>
      <point x="123.551" y="31.0212" type="line"/>
    </contour>
  </outline>
  <guideline angle="0" x="0" y="700"/>
  <guideline angle="0" x="0" y="0"/>
  <guideline angle="0" x="0" y="665"/>
  <guideline angle="90" x="122" y="0"/>
  <guideline angle="90" x="213" y="0"/>
  <guideline angle="90" x="334" y="0"/>
</glyph>
<glyph name="Y" format="2">
  <advance width="342"/>
  <unicode hex="0059"/>
  <outline>
    <contour>
      <point x="110" y="0.149995" type="line"/>
      <point x="227" y="0.149995" type="line"/>
      <point x="227" y="39.6732" type="line"/>
      <point x="204" y="39.6732" type="line"/>
      <point x="205" y="431.612" type="line"/>
      <point x="129" y="442.316" type="line"/>
      <point x="129" y="39.6732" type="line"/>
      <point x="110" y="39.6732" type="line"/>
    </contour>
    <contour>
      <point x="196.135" y="353.101" type="curve"/>
      <point x="182.475" y="431.476" type="line"/>
      <point x="110.448" y="664.879" type="line"/>
      <point x="122.388" y="665.924" type="line"/>
      <point x="120.258" y="699.756" type="line"/>
      <point x="10.6724" y="700.001" type="line"/>
      <point x="10.8159" y="665.166" type="line"/>
      <point x="27.138" y="665.432" type="line"/>
      <point x="123.454" y="358.774" type="line"/>
      <point x="158.351" y="247.243" type="line"/>
      <point x="174.018" y="261.64"/>
      <point x="184.626" y="271.736"/>
      <point x="193.105" y="291.478" type="curve" smooth="yes"/>
      <point x="201.583" y="311.221"/>
      <point x="196.422" y="331.802"/>
    </contour>
    <contour>
      <point x="157.916" y="327.584" type="curve" smooth="yes"/>
      <point x="152.469" y="334.076"/>
      <point x="125.538" y="344.438"/>
      <point x="128.16" y="352.589" type="curve"/>
      <point x="228.285" y="665.801" type="line"/>
      <point x="212.659" y="665.965" type="line"/>
      <point x="214.789" y="699.797" type="line"/>
      <point x="337.215" y="700.288" type="line"/>
      <point x="337.563" y="663.957" type="line"/>
      <point x="314.073" y="663.855" type="line"/>
      <point x="187.959" y="275.504" type="line"/>
      <point x="187.959" y="275.504" type="line"/>
      <point x="165.637" y="293.014"/>
      <point x="175.242" y="305.118"/>
    </contour>
  </outline>
  <guideline angle="90" x="204" y="0"/>
  <guideline angle="0" x="0" y="40"/>
</glyph>
<glyph name="Z" format="2">
  <advance width="258"/>
  <unicode hex="005A"/>
  <outline>
    <contour>
      <point x="10.5081" y="699.891" type="line"/>
      <point x="247.018" y="699.891" type="line"/>
      <point x="247.018" y="646.395" type="line"/>
      <point x="106.238" y="38.9292" type="line"/>
      <point x="174.517" y="38.9292" type="line"/>
      <point x="174.517" y="183.933" type="line"/>
      <point x="245.611" y="183.933" type="line"/>
      <point x="245.611" y="-0.489195" type="line"/>
      <point x="11.9159" y="-0.489195" type="line"/>
      <point x="11.9159" y="34.7058" type="line"/>
      <point x="153.4" y="652.73" type="line"/>
      <point x="83.0098" y="652.73" type="line"/>
      <point x="83.0098" y="487.313" type="line"/>
      <point x="10.5081" y="487.313" type="line"/>
    </contour>
  </outline>
  <guideline angle="90" x="247" y="0"/>
</glyph>
<glyph name="a" format="2">
  <advance width="239"/>
  <unicode hex="0061"/>
  <outline>
    <contour>
      <point x="234" y="30" type="line"/>
      <point x="234" y="0" type="line"/>
      <point x="207" y="0"/>
      <point x="168" y="0"/>
      <point x="139" y="0" type="curve" smooth="yes"/>
      <point x="134" y="0"/>
      <point x="133" y="9"/>
      <point x="129" y="12" type="curve"/>
      <point x="92" y="0" type="line" smooth="yes"/>
      <point x="37" y="-18"/>
      <point x="10" y="38"/>
      <point x="10" y="56" type="curve" smooth="yes"/>
      <point x="10" y="107"/>
      <point x="10" y="160"/>
      <point x="10" y="212" type="curve" smooth="yes"/>
      <point x="10" y="245"/>
      <point x="29" y="265"/>
      <point x="54" y="287" type="curve"/>
      <point x="78" y="310"/>
      <point x="108" y="335"/>
      <point x="131" y="377" type="curve"/>
      <point x="131" y="455" type="line" smooth="yes"/>
      <point x="131" y="471"/>
      <point x="124" y="487"/>
      <point x="109" y="487" type="curve" smooth="yes"/>
      <point x="93" y="487"/>
      <point x="86" y="478"/>
      <point x="86" y="455" type="curve" smooth="yes"/>
      <point x="86" y="359" type="line"/>
      <point x="10" y="359" type="line"/>
      <point x="10" y="429" type="line" smooth="yes"/>
      <point x="10" y="460"/>
      <point x="31" y="530"/>
      <point x="112" y="530" type="curve" smooth="yes"/>
      <point x="192" y="530"/>
      <point x="204" y="467"/>
      <point x="204" y="439" type="curve" smooth="yes"/>
      <point x="204" y="30" type="line"/>
    </contour>
    <contour>
      <point x="131" y="298" type="line"/>
      <point x="122" y="268"/>
      <point x="84" y="242"/>
      <point x="86" y="219" type="curve"/>
      <point x="86" y="56" type="line" smooth="yes"/>
      <point x="86" y="36"/>
      <point x="93" y="28"/>
      <point x="107" y="28" type="curve" smooth="yes"/>
      <point x="121" y="28"/>
      <point x="131" y="38"/>
      <point x="131" y="56" type="curve" smooth="yes"/>
    </contour>
  </outline>
  <guideline angle="0" x="0" y="525"/>
  <guideline angle="0" x="0" y="0"/>
  <guideline angle="0" x="0" y="530"/>
</glyph>
<glyph name="b" format="2">
  <advance width="250"/>
  <unicode hex="0062"/>
  <outline>
    <contour>
      <point x="0" y="30" type="line"/>
      <point x="0" y="0" type="line"/>
      <point x="131" y="0" type="line"/>
      <point x="131" y="6" type="line"/>
      <point x="143" y="1"/>
      <point x="160" y="-1"/>
      <point x="175" y="-1" type="curve" smooth="yes"/>
      <point x="236" y="-1"/>
      <point x="240" y="46"/>
      <point x="240" y="81" type="curve" smooth="yes"/>
      <point x="240" y="220"/>
      <point x="240" y="297"/>
      <point x="240" y="435" type="curve" smooth="yes"/>
      <point x="240" y="499"/>
      <point x="236" y="530"/>
      <point x="175" y="530" type="curve" smooth="yes"/>
      <point x="137" y="530"/>
      <point x="112" y="511"/>
      <point x="112" y="487" type="curve"/>
      <point x="112" y="700" type="line"/>
      <point x="0" y="700" type="line"/>
      <point x="0" y="670" type="line"/>
      <point x="30" y="670" type="line"/>
      <point x="30" y="30" type="line"/>
    </contour>
    <contour>
      <point x="112" y="430" type="line" smooth="yes"/>
      <point x="112" y="456"/>
      <point x="124" y="466"/>
      <point x="135" y="466" type="curve" smooth="yes"/>
      <point x="150" y="466"/>
      <point x="157" y="449"/>
      <point x="157" y="431" type="curve" smooth="yes"/>
      <point x="157" y="404" type="line"/>
      <point x="157" y="80" type="line" smooth="yes"/>
      <point x="157" y="53"/>
      <point x="150" y="41"/>
      <point x="136" y="41" type="curve" smooth="yes"/>
      <point x="121" y="41"/>
      <point x="112" y="55"/>
      <point x="112" y="80" type="curve" smooth="yes"/>
    </contour>
  </outline>
  <guideline angle="0" x="0" y="525"/>
  <guideline angle="0" x="0" y="700"/>
  <guideline angle="0" x="0" y="0"/>
  <guideline angle="0" x="0" y="530"/>
</glyph>
<glyph name="c" format="2">
  <advance width="237"/>
  <unicode hex="0063"/>
  <guideline y="700"/>
  <guideline y="525"/>
  <guideline y="0"/>
  <guideline y="530"/>
  <outline>
    <contour>
      <point x="10" y="428" type="line"/>
      <point x="10" y="511"/>
      <point x="43" y="530"/>
      <point x="89" y="530" type="curve"/>
      <point x="130" y="530"/>
      <point x="154" y="512"/>
      <point x="154" y="493" type="curve"/>
      <point x="154" y="525" type="line"/>
      <point x="222" y="525" type="line"/>
      <point x="222" y="319" type="line"/>
      <point x="154" y="319" type="line"/>
      <point x="154" y="411" type="line"/>
      <point x="154" y="460"/>
      <point x="144" y="467"/>
      <point x="124" y="467" type="curve" smooth="yes"/>
      <point x="103" y="467"/>
      <point x="93" y="458"/>
      <point x="93" y="411" type="curve"/>
      <point x="93" y="90" type="line"/>
      <point x="93" y="59"/>
      <point x="103" y="46"/>
      <point x="124" y="46" type="curve" smooth="yes"/>
      <point x="146" y="46"/>
      <point x="154" y="62"/>
      <point x="154" y="91" type="curve"/>
      <point x="154" y="237" type="line"/>
      <point x="222" y="237" type="line"/>
      <point x="222" y="114" type="line"/>
      <point x="222" y="51"/>
      <point x="185" y="0"/>
      <point x="135" y="0" type="curve"/>
      <point x="103" y="0" type="line"/>
      <point x="50" y="0"/>
      <point x="10" y="51"/>
      <point x="10" y="91" type="curve"/>
      <point x="10" y="91"/>
      <point x="10" y="91"/>
      <point x="10" y="91" type="curve"/>
    </contour>
  </outline>
</glyph>
<glyph name="d" format="2">
  <advance width="261"/>
  <unicode hex="0064"/>
  <guideline x="107"/>
  <guideline y="700"/>
  <guideline y="525"/>
  <guideline y="0"/>
  <guideline y="530"/>
  <outline>
    <contour>
      <point x="256" y="0" type="line"/>
      <point x="125" y="0" type="line"/>
      <point x="125" y="7.00136" type="line"/>
      <point x="110.969" y="0.43924"/>
      <point x="91.222" y="-2"/>
      <point x="73" y="-2" type="curve" smooth="yes"/>
      <point x="5" y="-2"/>
      <point x="11" y="51"/>
      <point x="11" y="91" type="curve" smooth="yes"/>
      <point x="11" y="246"/>
      <point x="11" y="252"/>
      <point x="11" y="407" type="curve" smooth="yes"/>
      <point x="11" y="505"/>
      <point x="18" y="530"/>
      <point x="72" y="530" type="curve" smooth="yes"/>
      <point x="116" y="530"/>
      <point x="144" y="509"/>
      <point x="144" y="483" type="curve"/>
      <point x="144" y="670" type="line"/>
      <point x="114" y="670" type="line"/>
      <point x="114" y="700" type="line"/>
      <point x="144" y="700" type="line"/>
      <point x="226" y="700" type="line"/>
      <point x="226" y="673" type="line"/>
      <point x="226" y="30" type="line"/>
      <point x="256" y="30" type="line"/>
    </contour>
    <contour>
      <point x="144" y="419" type="line" smooth="yes"/>
      <point x="144" y="448"/>
      <point x="130" y="459"/>
      <point x="118" y="459" type="curve" smooth="yes"/>
      <point x="101" y="459"/>
      <point x="93" y="440"/>
      <point x="93" y="420" type="curve" smooth="yes"/>
      <point x="93" y="390" type="line"/>
      <point x="93" y="90" type="line" smooth="yes"/>
      <point x="93" y="59"/>
      <point x="101" y="46"/>
      <point x="117" y="46" type="curve" smooth="yes"/>
      <point x="133" y="46"/>
      <point x="144" y="62"/>
      <point x="144" y="89" type="curve" smooth="yes"/>
    </contour>
    <contour>
      <point x="144" y="29" type="line"/>
      <point x="144" y="32" type="line"/>
      <point x="144" y="30.9721"/>
      <point x="143.941" y="29.9723"/>
      <point x="143.824" y="29" type="curve"/>
    </contour>
  </outline>
</glyph>
<glyph name="e" format="2">
  <advance width="244"/>
  <unicode hex="0065"/>
  <guideline y="332"/>
  <guideline y="201"/>
  <guideline y="525"/>
  <guideline x="123"/>
  <guideline y="0"/>
  <guideline y="530"/>
  <outline>
    <contour>
      <point x="15" y="111" type="line" smooth="yes"/>
      <point x="15" y="37"/>
      <point x="48" y="0"/>
      <point x="123" y="0" type="curve" smooth="yes"/>
      <point x="220" y="0"/>
      <point x="228" y="97"/>
      <point x="228" y="131" type="curve" smooth="yes"/>
      <point x="229" y="201" type="line"/>
      <point x="149" y="201" type="line"/>
      <point x="148" y="76" type="line" smooth="yes"/>
      <point x="148" y="45"/>
      <point x="141" y="33"/>
      <point x="122" y="33" type="curve" smooth="yes"/>
      <point x="103" y="33"/>
      <point x="98" y="45"/>
      <point x="98" y="76" type="curve" smooth="yes"/>
      <point x="98" y="271" type="line"/>
      <point x="149" y="271" type="line"/>
      <point x="229" y="271" type="line"/>
      <point x="229" y="415" type="line" smooth="yes"/>
      <point x="229" y="478"/>
      <point x="222" y="530"/>
      <point x="125" y="530" type="curve" smooth="yes"/>
      <point x="45" y="530"/>
      <point x="16" y="491"/>
      <point x="16" y="418" type="curve" smooth="yes"/>
    </contour>
    <contour>
      <point x="123" y="473" type="curve" smooth="yes"/>
      <point x="150" y="473"/>
      <point x="149" y="431"/>
      <point x="149" y="399" type="curve" smooth="yes"/>
      <point x="149" y="373" type="line"/>
      <point x="149" y="302" type="line"/>
      <point x="98" y="302" type="line"/>
      <point x="98" y="400" type="line" smooth="yes"/>
      <point x="98" y="431"/>
      <point x="95" y="473"/>
    </contour>
  </outline>
</glyph>
<glyph name="f" format="2">
  <advance width="193"/>
  <unicode hex="0066"/>
  <outline>
    <contour>
      <point x="10.3962" y="30.2272" type="line"/>
      <point x="10.3962" y="0" type="line"/>
      <point x="147.363" y="0" type="line"/>
      <point x="147.363" y="30.2272" type="line"/>
      <point x="117.136" y="30.2272" type="line"/>
      <point x="117.136" y="494.97" type="line"/>
      <point x="147.363" y="494.97" type="line"/>
      <point x="147.363" y="525.198" type="line"/>
      <point x="117.136" y="525.198" type="line"/>
      <point x="117.136" y="543.145" type="line"/>
      <point x="102.022" y="562.037" type="line" smooth="yes"/>
      <point x="86.9088" y="580.929"/>
      <point x="79.352" y="671.611"/>
      <point x="103.912" y="671.611" type="curve" smooth="yes"/>
      <point x="132.25" y="671.611"/>
      <point x="131.305" y="654.608"/>
      <point x="132.25" y="635.716" type="curve"/>
      <point x="132.25" y="609.267" type="line"/>
      <point x="182.313" y="609.267" type="line"/>
      <point x="182.313" y="649.885"/>
      <point x="190.815" y="710.339"/>
      <point x="105.801" y="710.339" type="curve" smooth="yes"/>
      <point x="26.4544" y="710.339"/>
      <point x="39.6788" y="652.719"/>
      <point x="39.6788" y="525.198" type="curve"/>
      <point x="10.3962" y="525.198" type="line"/>
      <point x="10.3962" y="494.97" type="line"/>
      <point x="39.6788" y="494.97" type="line"/>
      <point x="39.6788" y="30.2272" type="line"/>
    </contour>
  </outline>
  <guideline angle="0" x="0" y="525"/>
  <guideline angle="0" x="0" y="710"/>
  <guideline angle="0" x="0" y="0"/>
</glyph>
<glyph name="g" format="2">
  <advance width="272"/>
  <unicode hex="0067"/>
  <outline>
    <contour>
      <point x="10" y="-71" type="line"/>
      <point x="10" y="-118" type="line"/>
      <point x="12" y="-204"/>
      <point x="60" y="-220"/>
      <point x="124" y="-220" type="curve"/>
      <point x="211" y="-218"/>
      <point x="233" y="-169"/>
      <point x="233" y="-126" type="curve" smooth="yes"/>
      <point x="232.005" y="495" type="line"/>
      <point x="262" y="495" type="line"/>
      <point x="262" y="525" type="line"/>
      <point x="232" y="525" type="line" smooth="yes"/>
      <point x="205" y="525"/>
      <point x="177" y="525"/>
      <point x="150" y="525" type="curve"/>
      <point x="150" y="483" type="line"/>
      <point x="150" y="509"/>
      <point x="123" y="530"/>
      <point x="79" y="530" type="curve" smooth="yes"/>
      <point x="20" y="530"/>
      <point x="17" y="485"/>
      <point x="17" y="419" type="curve" smooth="yes"/>
      <point x="17" y="264"/>
      <point x="17" y="247"/>
      <point x="17" y="92" type="curve" smooth="yes"/>
      <point x="17" y="52"/>
      <point x="11" y="-1"/>
      <point x="79" y="-1" type="curve" smooth="yes"/>
      <point x="120" y="-1"/>
      <point x="150" y="6"/>
      <point x="150" y="32" type="curve" smooth="yes"/>
      <point x="150" y="89" type="line"/>
      <point x="151" y="-126" type="line"/>
      <point x="153" y="-167"/>
      <point x="99" y="-182"/>
      <point x="99" y="-118" type="curve" smooth="yes"/>
      <point x="99" y="-57"/>
      <point x="99" y="-99"/>
      <point x="99" y="-71" type="curve"/>
    </contour>
    <contour>
      <point x="99" y="414" type="line" smooth="yes"/>
      <point x="99" y="432"/>
      <point x="99" y="459"/>
      <point x="124" y="459" type="curve" smooth="yes"/>
      <point x="136" y="459"/>
      <point x="150" y="448"/>
      <point x="150" y="419" type="curve" smooth="yes"/>
      <point x="150" y="277" type="line"/>
      <point x="150" y="89" type="line" smooth="yes"/>
      <point x="150" y="62"/>
      <point x="139" y="46"/>
      <point x="123" y="46" type="curve" smooth="yes"/>
      <point x="107" y="46"/>
      <point x="99" y="59"/>
      <point x="99" y="90" type="curve" smooth="yes"/>
      <point x="99" y="194"/>
      <point x="99" y="301"/>
      <point x="99" y="405" type="curve" smooth="yes"/>
    </contour>
    <contour>
      <point x="232.005" y="495" type="line"/>
      <point x="232" y="495" type="line"/>
      <point x="232" y="498" type="line"/>
    </contour>
  </outline>
  <guideline angle="0" x="0" y="525"/>
  <guideline angle="0" x="0" y="0"/>
  <guideline angle="0" x="0" y="-220"/>
  <guideline angle="0" x="0" y="530"/>
</glyph>
<glyph name="h" format="2">
  <advance width="294"/>
  <unicode hex="0068"/>
  <outline>
    <contour>
      <point x="40" y="30" type="line"/>
      <point x="10" y="30" type="line"/>
      <point x="10" y="0" type="line"/>
      <point x="140" y="0" type="line"/>
      <point x="140" y="30" type="line"/>
      <point x="122" y="30" type="line"/>
      <point x="122" y="700" type="line"/>
      <point x="10" y="700" type="line"/>
      <point x="10" y="670" type="line"/>
      <point x="40" y="670" type="line"/>
    </contour>
    <contour>
      <point x="172" y="421" type="curve" smooth="yes"/>
      <point x="172" y="30" type="line"/>
      <point x="154" y="30" type="line"/>
      <point x="154" y="0" type="line"/>
      <point x="284" y="0" type="line"/>
      <point x="284" y="30" type="line"/>
      <point x="254" y="30" type="line"/>
      <point x="254" y="439" type="line" smooth="yes"/>
      <point x="254" y="502"/>
      <point x="241" y="530"/>
      <point x="193" y="530" type="curve" smooth="yes"/>
      <point x="167" y="530"/>
      <point x="123" y="516"/>
      <point x="118" y="475" type="curve"/>
      <point x="122" y="402" type="line"/>
      <point x="122" y="421" type="line" smooth="yes"/>
      <point x="122" y="449"/>
      <point x="130" y="465"/>
      <point x="147" y="465" type="curve" smooth="yes"/>
      <point x="167" y="465"/>
      <point x="172" y="455"/>
    </contour>
  </outline>
  <guideline angle="0" x="0" y="48"/>
  <guideline angle="90" x="40" y="0"/>
  <guideline angle="90" x="122" y="0"/>
  <guideline angle="90" x="193" y="0"/>
  <guideline angle="90" x="286" y="0"/>
  <guideline angle="90" x="19" y="0"/>
  <guideline angle="90" x="141" y="0"/>
  <guideline angle="90" x="172" y="0"/>
  <guideline angle="90" x="308" y="0"/>
  <guideline angle="0" x="0" y="700"/>
  <guideline angle="0" x="0" y="525"/>
  <guideline angle="0" x="0" y="0"/>
  <guideline angle="0" x="0" y="530"/>
</glyph>
<glyph name="i" format="2">
  <advance width="152"/>
  <unicode hex="0069"/>
  <guideline y="700"/>
  <guideline y="525"/>
  <guideline y="0"/>
  <guideline y="30"/>
  <outline>
    <contour>
      <point x="35" y="30" type="line"/>
      <point x="5" y="30" type="line"/>
      <point x="5" y="0" type="line"/>
      <point x="147" y="0" type="line"/>
      <point x="147" y="30" type="line"/>
      <point x="117" y="30" type="line"/>
      <point x="117" y="525" type="line"/>
      <point x="5" y="525" type="line"/>
      <point x="5" y="495" type="line"/>
      <point x="35" y="495" type="line"/>
    </contour>
    <contour>
      <point x="117" y="700" type="line"/>
      <point x="117" y="609" type="line"/>
      <point x="35" y="609" type="line"/>
      <point x="35" y="700" type="line"/>
    </contour>
  </outline>
</glyph>
<glyph name="j" format="2">
  <advance width="132"/>
  <unicode hex="006A"/>
  <outline>
    <contour>
      <point x="35" y="-157" type="curve" smooth="yes"/>
      <point x="38" y="77"/>
      <point x="35" y="263"/>
      <point x="35" y="495" type="curve"/>
      <point x="5" y="495" type="line"/>
      <point x="5" y="525" type="line"/>
      <point x="117" y="525" type="line"/>
      <point x="117" y="-157" type="line"/>
      <point x="117" y="-191"/>
      <point x="116" y="-220"/>
      <point x="79" y="-220" type="curve" smooth="yes"/>
      <point x="8" y="-220"/>
      <point x="43" y="-220"/>
      <point x="14" y="-220" type="curve"/>
      <point x="14" y="-186" type="line"/>
      <point x="28" y="-176"/>
      <point x="35" y="-174"/>
    </contour>
    <contour>
      <point x="117" y="700" type="line"/>
      <point x="117" y="609" type="line"/>
      <point x="35" y="609" type="line"/>
      <point x="35" y="700" type="line"/>
    </contour>
  </outline>
  <guideline angle="0" x="0" y="-220"/>
  <guideline angle="0" x="0" y="525"/>
</glyph>
<glyph name="k" format="2">
  <advance width="275"/>
  <unicode hex="006B"/>
  <outline>
    <contour>
      <point x="35" y="30" type="line"/>
      <point x="35" y="670" type="line"/>
      <point x="5" y="670" type="line"/>
      <point x="5" y="700" type="line"/>
      <point x="111" y="700" type="line"/>
      <point x="111" y="30" type="line"/>
      <point x="130" y="30" type="line"/>
      <point x="130" y="0" type="line"/>
      <point x="5" y="0" type="line"/>
      <point x="5" y="30" type="line"/>
    </contour>
    <contour>
      <point x="111" y="286" type="line"/>
      <point x="111" y="408" type="line"/>
      <point x="133" y="444"/>
      <point x="162" y="489"/>
      <point x="165" y="495" type="curve"/>
      <point x="135" y="495" type="line"/>
      <point x="135" y="525" type="line"/>
      <point x="259" y="525" type="line"/>
      <point x="259" y="495" type="line"/>
      <point x="229" y="495" type="line"/>
      <point x="160" y="371" type="line"/>
      <point x="240" y="30" type="line"/>
      <point x="270" y="30" type="line"/>
      <point x="270" y="0" type="line"/>
      <point x="153" y="0" type="line"/>
      <point x="153" y="30" type="line"/>
      <point x="172" y="30" type="line"/>
    </contour>
  </outline>
  <guideline angle="0" x="0" y="525"/>
  <guideline angle="90" x="111" y="0"/>
  <guideline angle="0" x="0" y="700"/>
  <guideline angle="0" x="0" y="0"/>
</glyph>
<glyph name="l" format="2">
  <advance width="152"/>
  <unicode hex="006C"/>
  <guideline y="700"/>
  <guideline y="0"/>
  <outline>
    <contour>
      <point x="35" y="30" type="line"/>
      <point x="5" y="30" type="line"/>
      <point x="5" y="0" type="line"/>
      <point x="147" y="0" type="line"/>
      <point x="147" y="30" type="line"/>
      <point x="117" y="30" type="line"/>
      <point x="117" y="700" type="line"/>
      <point x="5" y="700" type="line"/>
      <point x="5" y="670" type="line"/>
      <point x="35" y="670" type="line"/>
    </contour>
  </outline>
</glyph>
<glyph name="m" format="2">
  <advance width="418"/>
  <unicode hex="006D"/>
  <guideline y="525"/>
  <guideline y="0"/>
  <guideline y="0"/>
  <guideline y="530"/>
  <outline>
    <contour>
      <point x="5" y="495" type="line"/>
      <point x="35" y="495" type="line"/>
      <point x="35" y="30" type="line"/>
      <point x="5" y="30" type="line"/>
      <point x="5" y="0" type="line"/>
      <point x="136" y="0" type="line"/>
      <point x="136" y="30" type="line"/>
      <point x="117" y="30" type="line"/>
      <point x="117" y="423" type="line" smooth="yes"/>
      <point x="117" y="453"/>
      <point x="123" y="466"/>
      <point x="142" y="466" type="curve" smooth="yes"/>
      <point x="161" y="466"/>
      <point x="168" y="450"/>
      <point x="168" y="423" type="curve" smooth="yes"/>
      <point x="168" y="30" type="line"/>
      <point x="149" y="30" type="line"/>
      <point x="149" y="0" type="line"/>
      <point x="269" y="0" type="line"/>
      <point x="269" y="30" type="line"/>
      <point x="250" y="30" type="line"/>
      <point x="249" y="438" type="line" smooth="yes"/>
      <point x="249" y="458"/>
      <point x="264" y="467"/>
      <point x="275" y="467" type="curve" smooth="yes"/>
      <point x="295" y="467"/>
      <point x="301" y="453"/>
      <point x="301" y="438" type="curve" smooth="yes"/>
      <point x="301" y="30" type="line"/>
      <point x="282" y="30" type="line"/>
      <point x="282" y="0" type="line"/>
      <point x="413" y="0" type="line"/>
      <point x="413" y="30" type="line"/>
      <point x="383" y="30" type="line"/>
      <point x="383" y="35" type="line"/>
      <point x="383" y="232" type="line"/>
      <point x="383" y="429" type="line"/>
      <point x="383" y="441" type="line" smooth="yes"/>
      <point x="383" y="471"/>
      <point x="389" y="530"/>
      <point x="321" y="530" type="curve" smooth="yes"/>
      <point x="275" y="530"/>
      <point x="248" y="512"/>
      <point x="248" y="487" type="curve"/>
      <point x="243" y="509"/>
      <point x="238" y="530"/>
      <point x="188" y="530" type="curve" smooth="yes"/>
      <point x="150" y="530"/>
      <point x="117" y="511"/>
      <point x="117" y="486" type="curve"/>
      <point x="117" y="525" type="line"/>
      <point x="5" y="525" type="line"/>
    </contour>
  </outline>
</glyph>
<glyph name="n" format="2">
  <advance width="285"/>
  <unicode hex="006E"/>
  <guideline y="525"/>
  <guideline y="0"/>
  <guideline y="530"/>
  <outline>
    <contour>
      <point x="35" y="30" type="line"/>
      <point x="5" y="30" type="line"/>
      <point x="5" y="0" type="line"/>
      <point x="136" y="0" type="line"/>
      <point x="136" y="30" type="line"/>
      <point x="117" y="30" type="line"/>
      <point x="117" y="525" type="line"/>
      <point x="5" y="525" type="line"/>
      <point x="5" y="495" type="line"/>
      <point x="35" y="495" type="line"/>
    </contour>
    <contour>
      <point x="168" y="452" type="line"/>
      <point x="168" y="30" type="line"/>
      <point x="149" y="30" type="line"/>
      <point x="149" y="0" type="line"/>
      <point x="280" y="0" type="line"/>
      <point x="280" y="29" type="line"/>
      <point x="250" y="29" type="line"/>
      <point x="250" y="421" type="line"/>
      <point x="250" y="461"/>
      <point x="256" y="530"/>
      <point x="188" y="530" type="curve"/>
      <point x="143" y="530"/>
      <point x="117" y="511"/>
      <point x="117" y="486" type="curve" smooth="yes"/>
      <point x="117" y="423" type="line"/>
      <point x="117" y="453"/>
      <point x="123" y="466"/>
      <point x="142" y="466" type="curve" smooth="yes"/>
      <point x="161" y="466"/>
      <point x="168" y="450"/>
      <point x="168" y="423" type="curve"/>
    </contour>
    <contour>
      <point x="168" y="423" type="move"/>
      <point x="168" y="30" type="line"/>
    </contour>
  </outline>
</glyph>
<glyph name="o" format="2">
  <advance width="245"/>
  <unicode hex="006F"/>
  <guideline y="577"/>
  <guideline y="0"/>
  <guideline y="525"/>
  <guideline y="530"/>
  <outline>
    <contour>
      <point x="122" y="0.4572" type="curve" smooth="yes"/>
      <point x="190" y="0.4572"/>
      <point x="230" y="29.8844"/>
      <point x="230" y="109.89" type="curve" smooth="yes"/>
      <point x="230" y="409.679" type="line" smooth="yes"/>
      <point x="230" y="505.318"/>
      <point x="193" y="530.147"/>
      <point x="125" y="530.147" type="curve" smooth="yes"/>
      <point x="60" y="530.147"/>
      <point x="15" y="505.318"/>
      <point x="15" y="412.438" type="curve" smooth="yes"/>
      <point x="15" y="294.729"/>
      <point x="17" y="231.277"/>
      <point x="17" y="113.568" type="curve" smooth="yes"/>
      <point x="17" y="29.8844"/>
      <point x="57" y="0.4572"/>
    </contour>
    <contour>
      <point x="148" y="432.669" type="curve"/>
      <point x="148" y="469.453"/>
      <point x="148" y="212.885"/>
      <point x="148" y="91.4976" type="curve" smooth="yes"/>
      <point x="148" y="61.1508"/>
      <point x="141" y="45.5176"/>
      <point x="122" y="45.5176" type="curve" smooth="yes"/>
      <point x="103" y="45.5176"/>
      <point x="97" y="60.2312"/>
      <point x="97" y="90.578" type="curve" smooth="yes"/>
      <point x="97" y="433.589" type="line"/>
      <point x="97" y="464.855"/>
      <point x="109" y="480.488"/>
      <point x="125" y="480.488" type="curve"/>
      <point x="142" y="480.488"/>
      <point x="148" y="459.338"/>
    </contour>
  </outline>
</glyph>
<glyph name="p" format="2">
  <advance width="260"/>
  <unicode hex="0070"/>
  <outline>
    <contour>
      <point x="116" y="419" type="line"/>
      <point x="116" y="448"/>
      <point x="130" y="459"/>
      <point x="142" y="459" type="curve" smooth="yes"/>
      <point x="159" y="459"/>
      <point x="167" y="440"/>
      <point x="167" y="420" type="curve" smooth="yes"/>
      <point x="167" y="90" type="line" smooth="yes"/>
      <point x="167" y="59"/>
      <point x="159" y="46"/>
      <point x="143" y="46" type="curve" smooth="yes"/>
      <point x="127" y="46"/>
      <point x="116" y="62"/>
      <point x="116" y="89" type="curve"/>
      <point x="116" y="32" type="line" smooth="yes"/>
      <point x="116" y="6"/>
      <point x="149" y="-2"/>
      <point x="187" y="-2" type="curve" smooth="yes"/>
      <point x="255" y="-2"/>
      <point x="249" y="51"/>
      <point x="249" y="91" type="curve" smooth="yes"/>
      <point x="249" y="418" type="line" smooth="yes"/>
      <point x="249" y="485"/>
      <point x="247" y="530"/>
      <point x="187" y="530" type="curve"/>
      <point x="143" y="530"/>
      <point x="116" y="509"/>
      <point x="116" y="483" type="curve" smooth="yes"/>
    </contour>
    <contour>
      <point x="35" y="-190" type="line"/>
      <point x="5" y="-190" type="line"/>
      <point x="5" y="-220" type="line"/>
      <point x="147" y="-220" type="line"/>
      <point x="147" y="-190" type="line"/>
      <point x="117" y="-190" type="line"/>
      <point x="117" y="525" type="line"/>
      <point x="5" y="525" type="line"/>
      <point x="5" y="495" type="line"/>
      <point x="35" y="495" type="line"/>
    </contour>
  </outline>
  <guideline angle="0" x="0" y="-220"/>
  <guideline angle="0" x="0" y="525"/>
  <guideline angle="0" x="0" y="530"/>
</glyph>
<glyph name="q" format="2">
  <advance width="265"/>
  <unicode hex="0071"/>
  <outline>
    <contour>
      <point x="225" y="-192" type="line"/>
      <point x="246" y="-192" type="line"/>
      <point x="246" y="-220" type="line"/>
      <point x="124" y="-220" type="line"/>
      <point x="124" y="-192" type="line"/>
      <point x="143" y="-192" type="line"/>
      <point x="143" y="525" type="line"/>
      <point x="255" y="525" type="line"/>
      <point x="255" y="495" type="line"/>
      <point x="225" y="495" type="line"/>
    </contour>
    <contour>
      <point x="11" y="418" type="line" smooth="yes"/>
      <point x="11" y="484"/>
      <point x="9" y="530"/>
      <point x="72" y="530" type="curve" smooth="yes"/>
      <point x="117" y="530"/>
      <point x="143" y="509"/>
      <point x="143" y="483" type="curve" smooth="yes"/>
      <point x="143" y="419" type="line"/>
      <point x="143" y="448"/>
      <point x="129" y="459"/>
      <point x="117" y="459" type="curve" smooth="yes"/>
      <point x="100" y="459"/>
      <point x="92" y="440"/>
      <point x="92" y="420" type="curve" smooth="yes"/>
      <point x="92" y="90" type="line" smooth="yes"/>
      <point x="92" y="59"/>
      <point x="100" y="46"/>
      <point x="116" y="46" type="curve" smooth="yes"/>
      <point x="132" y="46"/>
      <point x="143" y="62"/>
      <point x="143" y="89" type="curve"/>
      <point x="143" y="32" type="line" smooth="yes"/>
      <point x="143" y="6"/>
      <point x="116" y="-2"/>
      <point x="73" y="-2" type="curve" smooth="yes"/>
      <point x="5" y="-2"/>
      <point x="11" y="51"/>
      <point x="11" y="91" type="curve" smooth="yes"/>
    </contour>
  </outline>
  <guideline angle="0" x="0" y="-220"/>
  <guideline angle="0" x="0" y="525"/>
  <guideline angle="0" x="0" y="530"/>
</glyph>
<glyph name="r" format="2">
  <advance width="260"/>
  <unicode hex="0072"/>
  <outline>
    <contour>
      <point x="35" y="30" type="line"/>
      <point x="5" y="30" type="line"/>
      <point x="5" y="0" type="line"/>
      <point x="147" y="0" type="line"/>
      <point x="147" y="30" type="line"/>
      <point x="117" y="30" type="line"/>
      <point x="117" y="422" type="line" smooth="yes"/>
      <point x="117" y="451"/>
      <point x="131" y="462"/>
      <point x="143" y="462" type="curve" smooth="yes"/>
      <point x="160" y="462"/>
      <point x="168" y="443"/>
      <point x="168" y="423" type="curve" smooth="yes"/>
      <point x="168" y="337" type="line"/>
      <point x="250" y="337" type="line"/>
      <point x="250" y="436" type="line" smooth="yes"/>
      <point x="250" y="493"/>
      <point x="245" y="530"/>
      <point x="177" y="530" type="curve" smooth="yes"/>
      <point x="134" y="530"/>
      <point x="117" y="512"/>
      <point x="117" y="486" type="curve"/>
      <point x="117" y="525" type="line"/>
      <point x="5" y="525" type="line"/>
      <point x="5" y="495" type="line"/>
      <point x="35" y="495" type="line"/>
    </contour>
    <contour>
      <point x="117" y="479" type="move" smooth="yes"/>
      <point x="117" y="416" type="line"/>
    </contour>
  </outline>
  <guideline angle="0" x="0" y="337"/>
  <guideline angle="0" x="0" y="525"/>
  <guideline angle="0" x="0" y="0"/>
  <guideline angle="0" x="0" y="530"/>
</glyph>
<glyph name="s" format="2">
  <advance width="237"/>
  <unicode hex="0073"/>
  <outline>
    <contour>
      <point x="157" y="525" type="line"/>
      <point x="227" y="525" type="line"/>
      <point x="227" y="357" type="line"/>
      <point x="157" y="357" type="line"/>
    </contour>
    <contour>
      <point x="80" y="0" type="line"/>
      <point x="10" y="0" type="line"/>
      <point x="10" y="193" type="line"/>
      <point x="80" y="193" type="line"/>
    </contour>
    <contour>
      <point x="80" y="35" type="curve"/>
      <point x="80" y="120" type="line"/>
      <point x="80" y="98"/>
      <point x="105" y="64"/>
      <point x="122" y="64" type="curve"/>
      <point x="139" y="64"/>
      <point x="150" y="75"/>
      <point x="150" y="95" type="curve"/>
      <point x="152" y="203"/>
      <point x="18" y="305"/>
      <point x="18" y="431" type="curve"/>
      <point x="18" y="490"/>
      <point x="29" y="530"/>
      <point x="93" y="530" type="curve"/>
      <point x="128" y="530"/>
      <point x="157" y="505"/>
      <point x="157" y="490" type="curve"/>
      <point x="157" y="411" type="line"/>
      <point x="157" y="441"/>
      <point x="133" y="473"/>
      <point x="109" y="473" type="curve"/>
      <point x="87" y="472"/>
      <point x="82" y="459"/>
      <point x="83" y="437" type="curve"/>
      <point x="83" y="365"/>
      <point x="222" y="225"/>
      <point x="222" y="120" type="curve"/>
      <point x="222" y="80"/>
      <point x="216" y="0"/>
      <point x="144" y="0" type="curve"/>
      <point x="104" y="0"/>
      <point x="94" y="13"/>
    </contour>
  </outline>
  <guideline angle="0" x="0" y="525"/>
  <guideline angle="0" x="0" y="0"/>
  <guideline angle="0" x="0" y="530"/>
</glyph>
<glyph name="t" format="2">
  <advance width="151"/>
  <unicode hex="0074"/>
  <outline>
    <contour>
      <point x="116" y="495" type="line"/>
      <point x="116" y="63" type="line"/>
      <point x="116" y="46"/>
      <point x="124" y="44"/>
      <point x="138" y="34" type="curve"/>
      <point x="138" y="0" type="line"/>
      <point x="73" y="0" type="line" smooth="yes"/>
      <point x="36" y="0"/>
      <point x="35" y="29"/>
      <point x="35" y="63" type="curve" smooth="yes"/>
      <point x="35" y="495" type="line"/>
      <point x="5" y="495" type="line"/>
      <point x="5" y="525" type="line"/>
      <point x="35" y="525" type="line"/>
      <point x="35" y="627" type="line"/>
      <point x="69" y="700" type="line"/>
      <point x="117" y="700" type="line"/>
      <point x="117" y="525" type="line"/>
      <point x="146" y="525" type="line"/>
      <point x="146" y="495" type="line"/>
    </contour>
  </outline>
  <guideline angle="0" x="0" y="700"/>
  <guideline angle="0" x="0" y="525"/>
  <guideline angle="0" x="0" y="0"/>
</glyph>
<glyph name="u" format="2">
  <advance width="274"/>
  <unicode hex="0075"/>
  <guideline x="-3" y="525" angle="0"/>
  <guideline x="-3" y="0" angle="0"/>
  <outline>
    <contour>
      <point x="239" y="30" type="line"/>
      <point x="239" y="525" type="line"/>
      <point x="132" y="525" type="line"/>
      <point x="132" y="495" type="line"/>
      <point x="163" y="495" type="line"/>
      <point x="163" y="108" type="line" smooth="yes"/>
      <point x="163" y="79"/>
      <point x="154" y="65"/>
      <point x="137" y="65" type="curve" smooth="yes"/>
      <point x="120" y="65"/>
      <point x="111" y="79"/>
      <point x="111" y="108" type="curve" smooth="yes"/>
      <point x="111" y="525" type="line"/>
      <point x="5" y="525" type="line"/>
      <point x="5" y="495" type="line"/>
      <point x="35" y="495" type="line"/>
      <point x="35" y="94" type="line" smooth="yes"/>
      <point x="35" y="29"/>
      <point x="56" y="-6"/>
      <point x="93" y="-6" type="curve" smooth="yes"/>
      <point x="133" y="-6"/>
      <point x="156" y="9"/>
      <point x="163" y="40" type="curve"/>
      <point x="163" y="0" type="line"/>
      <point x="269" y="0" type="line"/>
      <point x="269" y="30" type="line"/>
    </contour>
  </outline>
</glyph>
<glyph name="v" format="2">
  <advance width="273"/>
  <unicode hex="0076"/>
  <outline>
    <contour>
      <point x="112" y="525" type="line"/>
      <point x="5" y="525" type="line"/>
      <point x="5" y="495" type="line"/>
      <point x="132" y="495" type="line"/>
      <point x="132" y="525" type="line"/>
    </contour>
    <contour>
      <point x="252" y="525" type="line"/>
      <point x="149" y="525" type="line"/>
      <point x="149" y="495" type="line"/>
      <point x="268" y="495" type="line"/>
      <point x="268" y="525" type="line"/>
    </contour>
    <contour>
      <point x="97" y="0" type="line"/>
      <point x="179" y="0" type="line"/>
      <point x="237" y="497" type="line"/>
      <point x="177" y="497" type="line"/>
      <point x="141" y="252" type="line"/>
      <point x="103" y="498" type="line"/>
      <point x="36" y="498" type="line"/>
    </contour>
  </outline>
  <guideline angle="0" x="0" y="525"/>
  <guideline angle="0" x="0" y="0"/>
  <guideline angle="0" x="0" y="252"/>
  <guideline angle="90" x="26" y="0"/>
  <guideline angle="90" x="255" y="0"/>
</glyph>
<glyph name="w" format="2">
  <advance width="424"/>
  <unicode hex="0077"/>
  <outline>
    <contour>
      <point x="248" y="495" type="line"/>
      <point x="289" y="252" type="line"/>
      <point x="324" y="495" type="line"/>
      <point x="294" y="495" type="line"/>
      <point x="294" y="525" type="line"/>
      <point x="414" y="525" type="line"/>
      <point x="414" y="495" type="line"/>
      <point x="384" y="495" type="line"/>
      <point x="331" y="0" type="line"/>
      <point x="250" y="0" type="line"/>
      <point x="214" y="292" type="line"/>
      <point x="183" y="0" type="line"/>
      <point x="101" y="0" type="line"/>
      <point x="40" y="495" type="line"/>
      <point x="10" y="495" type="line"/>
      <point x="10" y="525" type="line"/>
      <point x="137" y="525" type="line"/>
      <point x="137" y="495" type="line"/>
      <point x="107" y="495" type="line"/>
      <point x="146" y="252" type="line"/>
      <point x="185" y="495" type="line"/>
      <point x="155" y="495" type="line"/>
      <point x="155" y="525" type="line"/>
      <point x="278" y="525" type="line"/>
      <point x="278" y="495" type="line"/>
    </contour>
  </outline>
  <guideline angle="0" x="0" y="525"/>
  <guideline angle="0" x="0" y="0"/>
  <guideline angle="0" x="0" y="252"/>
</glyph>
<glyph name="x" format="2">
  <advance width="280"/>
  <unicode hex="0078"/>
  <outline>
    <contour>
      <point x="103" y="497" type="line"/>
      <point x="38" y="497" type="line"/>
      <point x="104" y="293" type="line"/>
      <point x="42" y="30" type="line"/>
      <point x="12" y="30" type="line"/>
      <point x="12" y="0" type="line"/>
      <point x="134" y="0" type="line"/>
      <point x="134" y="30" type="line"/>
      <point x="106" y="30" type="line"/>
      <point x="140" y="181" type="line"/>
      <point x="169" y="28" type="line"/>
      <point x="235" y="28" type="line"/>
      <point x="180" y="294" type="line"/>
      <point x="237" y="495" type="line"/>
      <point x="268" y="495" type="line"/>
      <point x="268" y="525" type="line"/>
      <point x="147" y="525" type="line"/>
      <point x="147" y="495" type="line"/>
      <point x="177" y="495" type="line"/>
      <point x="141" y="368" type="line"/>
    </contour>
    <contour>
      <point x="115" y="525" type="line"/>
      <point x="10" y="525" type="line"/>
      <point x="10" y="495" type="line"/>
      <point x="134" y="495" type="line"/>
      <point x="134" y="525" type="line"/>
    </contour>
    <contour>
      <point x="250" y="30" type="line"/>
      <point x="147" y="30" type="line"/>
      <point x="147" y="0" type="line"/>
      <point x="270" y="0" type="line"/>
      <point x="270" y="28" type="line"/>
    </contour>
  </outline>
  <guideline angle="0" x="0" y="525"/>
  <guideline angle="0" x="0" y="0"/>
  <guideline angle="90" x="291" y="0"/>
  <guideline angle="90" x="12" y="0"/>
  <guideline angle="90" x="270" y="0"/>
  <guideline angle="90" x="134" y="0"/>
  <guideline angle="90" x="147" y="0"/>
</glyph>
<glyph name="y" format="2">
  <advance width="279"/>
  <unicode hex="0079"/>
  <outline>
    <contour>
      <point x="116" y="525" type="line"/>
      <point x="13" y="525" type="line"/>
      <point x="13" y="495" type="line"/>
      <point x="136" y="495" type="line"/>
      <point x="136" y="525" type="line"/>
    </contour>
    <contour>
      <point x="255" y="525" type="line"/>
      <point x="150" y="525" type="line"/>
      <point x="150" y="495" type="line"/>
      <point x="274" y="495" type="line"/>
      <point x="274" y="525" type="line"/>
    </contour>
    <contour>
      <point x="100" y="3" type="line"/>
      <point x="101" y="-13"/>
      <point x="107" y="-68"/>
      <point x="106" y="-100" type="curve" smooth="yes"/>
      <point x="103" y="-184"/>
      <point x="58" y="-180"/>
      <point x="58" y="-121" type="curve" smooth="yes"/>
      <point x="58" y="-60"/>
      <point x="58" y="-102"/>
      <point x="58" y="-74" type="curve"/>
      <point x="5" y="-74" type="line"/>
      <point x="5" y="-119" type="line"/>
      <point x="7" y="-205"/>
      <point x="24" y="-220"/>
      <point x="86" y="-220" type="curve"/>
      <point x="173" y="-220"/>
      <point x="170" y="-91"/>
      <point x="179" y="0" type="curve"/>
      <point x="240" y="496" type="line"/>
      <point x="180" y="496" type="line"/>
      <point x="144" y="245" type="line"/>
      <point x="103" y="497" type="line"/>
      <point x="39" y="497" type="line"/>
    </contour>
  </outline>
  <guideline angle="0" x="0" y="-220"/>
  <guideline angle="0" x="0" y="525"/>
</glyph>
<glyph name="z" format="2">
  <advance width="244"/>
  <unicode hex="007A"/>
  <guideline y="525"/>
  <guideline y="0"/>
  <guideline x="227"/>
  <outline>
    <contour>
      <point x="227" y="481" type="line"/>
      <point x="227" y="525" type="line"/>
      <point x="10" y="525" type="line"/>
      <point x="10" y="311" type="line"/>
      <point x="80" y="311" type="line"/>
      <point x="80" y="481" type="line"/>
      <point x="157" y="481" type="line"/>
      <point x="10" y="44" type="line"/>
      <point x="10" y="0" type="line"/>
      <point x="227" y="0" type="line"/>
      <point x="227" y="216" type="line"/>
      <point x="157" y="216" type="line"/>
      <point x="157" y="44" type="line"/>
      <point x="90" y="44" type="line"/>
    </contour>
    <contour>
      <point x="227" y="0" type="move"/>
      <point x="157" y="0" type="line"/>
    </contour>
  </outline>
</glyph>
<glyph name="fl" format="2">
  <advance width="283"/>
  <unicode hex="FB02"/>
  <outline>
    <contour>
      <point x="2.3962" y="0" type="line"/>
      <point x="139.363" y="0" type="line"/>
      <point x="139.363" y="30.2272" type="line"/>
      <point x="109.136" y="30.2272" type="line"/>
      <point x="109.136" y="498.749" type="line"/>
      <point x="128.973" y="498.749" type="line"/>
      <point x="128.973" y="525.198" type="line"/>
      <point x="109.136" y="525.198" type="line"/>
      <point x="109.136" y="543.145" type="line"/>
      <point x="94.0224" y="562.037" type="line" smooth="yes"/>
      <point x="78.9088" y="580.929"/>
      <point x="97.8008" y="673.5"/>
      <point x="153.532" y="673.5" type="curve" smooth="yes"/>
      <point x="181.87" y="673.5"/>
      <point x="191.316" y="656.497"/>
      <point x="192.261" y="637.605" type="curve"/>
      <point x="192.261" y="611.156" type="line"/>
      <point x="242.325" y="611.156" type="line"/>
      <point x="242.325" y="651.774"/>
      <point x="240.435" y="712.228"/>
      <point x="155.421" y="712.228" type="curve" smooth="yes"/>
      <point x="76.075" y="712.228"/>
      <point x="31.6788" y="652.719"/>
      <point x="31.6788" y="525.198" type="curve"/>
      <point x="13.7314" y="525.198" type="line"/>
      <point x="13.7314" y="498.749" type="line"/>
      <point x="31.6788" y="498.749" type="line"/>
      <point x="31.6788" y="30.2272" type="line"/>
      <point x="2.3962" y="30.2272" type="line"/>
    </contour>
    <contour>
      <point x="160" y="30" type="line"/>
      <point x="131" y="30" type="line"/>
      <point x="131" y="0" type="line"/>
      <point x="272" y="0" type="line"/>
      <point x="272" y="30" type="line"/>
      <point x="242" y="30" type="line"/>
      <point x="242" y="251"/>
      <point x="242" y="396"/>
      <point x="242" y="623" type="curve" smooth="yes"/>
      <point x="242" y="670"/>
      <point x="173" y="700"/>
      <point x="139" y="700" type="curve"/>
      <point x="139" y="673" type="line"/>
      <point x="160" y="673" type="line"/>
    </contour>
  </outline>
  <guideline angle="0" x="0" y="525"/>
  <guideline angle="0" x="0" y="710"/>
  <guideline angle="0" x="0" y="0"/>
  <guideline angle="0" x="0" y="700"/>
  <guideline angle="0" x="0" y="0"/>
  <guideline angle="0" x="0" y="525"/>
  <guideline angle="0" x="0" y="710"/>
  <guideline angle="0" x="0" y="0"/>
  <guideline angle="0" x="0" y="700"/>
  <guideline angle="0" x="0" y="0"/>
</glyph>
